<?xml version="1.0" encoding="UTF-8" standalone="no"?>
<svg
   version="1.0"
   width="487.81198pt"
   height="487.81198pt"
   viewBox="0 0 487.81198 487.81198"
   preserveAspectRatio="xMidYMid"
   id="svg16"
   sodipodi:docname="main.svg"
   inkscape:export-filename="../../GitHub/sagar/musabbirs-terminal/public/favicon.svg"
   inkscape:export-xdpi="7.0846972"
   inkscape:export-ydpi="7.0846972"
   xml:space="preserve"
   xmlns:inkscape="http://www.inkscape.org/namespaces/inkscape"
   xmlns:sodipodi="http://sodipodi.sourceforge.net/DTD/sodipodi-0.dtd"
   xmlns="http://www.w3.org/2000/svg"
   xmlns:svg="http://www.w3.org/2000/svg"><defs
     id="defs16" /><sodipodi:namedview
     id="namedview16"
     pagecolor="#ffffff"
     bordercolor="#cccccc"
     borderopacity="1"
     inkscape:showpageshadow="0"
     inkscape:pageopacity="1"
     inkscape:pagecheckerboard="0"
     inkscape:deskcolor="#d1d1d1"
     inkscape:document-units="pt"
     showguides="true" /><g
     transform="matrix(0.1,0,0,-0.1,-6.0940389,493.90596)"
     fill="#000000"
     stroke="none"
     id="g16"><g
       id="g9"
       transform="matrix(0.91923318,0,0,0.91923318,479.75299,120.32309)"><g
         id="g2"><g
           id="g8"
           transform="matrix(4.4222725,0,0,-4.4222725,428.84366,4357.6719)"><g
             fill-opacity="1"
             id="g6"><circle
               fill="#94a3b8"
               cx="400"
               cy="400"
               r="600"
               id="circle1"
               style="fill:#000000;fill-opacity:1" /><circle
               fill="#a3b0c3"
               cx="400"
               cy="400"
               r="500"
               id="circle2"
               style="fill:#030712;fill-opacity:1" /><circle
               fill="#b3bece"
               cx="400"
               cy="400"
               r="400"
               id="circle3"
               style="fill:#000000;fill-opacity:1" /><circle
               fill="#c2ccd9"
               cx="400"
               cy="400"
               r="300"
               id="circle4"
               style="fill:#030712;fill-opacity:1;stroke-width:0.999083;stroke-dasharray:none" /><circle
               fill="#d2dae5"
               cx="400"
               cy="400"
               r="200"
               id="circle5"
               style="fill:#030712;fill-opacity:1;stroke-width:0.999083;stroke-dasharray:none" /><circle
               fill="#e2e8f0"
               cx="400"
               cy="400"
               r="100"
               id="circle6"
               style="fill:#000000;fill-opacity:1" /></g></g><g
           id="g1"
           transform="matrix(1.1311028,0,0,1.1311028,-380.68044,-442.39414)"><path
             d="m 2049.5938,4497.9556 c 6.7962,-15.8578 17.368,-34.736 24.9193,-43.0424 18.8782,-21.1436 68.7166,-42.2871 101.9422,-42.2871 54.3693,0 20.3885,-32.4705 -43.0422,-40.777 -44.5526,-5.2858 -92.1257,-31.7153 -124.5961,-68.7166 -12.8373,-15.1025 -23.409,-24.9193 -23.409,-22.6539 0,10.5719 31.7152,64.941 57.3896,98.1667 l 27.1847,36.2462 -70.2269,-4.5308 c -89.8602,-5.2858 -218.232,-38.5116 -360.9513,-92.8808 -271.091,-104.2076 -429.6678,-219.7422 -508.9562,-372.2781 -45.3077,-86.0846 -53.6142,-126.8614 -55.1245,-257.4986 -0.7549,-95.1461 -3.7755,-126.8615 -17.3678,-169.9039 -27.1846,-89.8602 -23.409,-110.2486 33.2256,-188.7819 83.0641,-116.2898 111.759,-181.986 212.191,-485.5474 79.2884,-241.641 120.0653,-332.2563 218.232,-484.7923 114.7795,-178.9652 147.25,-257.4986 162.3526,-390.4011 7.5513,-70.2269 0.7551,-224.2731 -12.8373,-270.3359 -18.123,-63.4307 -160.0871,-112.514 -323.1948,-111.759 -127.6165,1.5103 -259.0089,37.0013 -371.523,101.1871 l -40.77684,23.409 12.83715,20.3885 c 85.32939,133.6577 195.57819,236.3551 323.94989,301.2962 42.2873,21.1435 143.4744,53.614 184.2513,58.8999 40.0218,5.2859 122.3307,-8.3064 154.0461,-24.9193 38.5115,-19.6332 30.9603,-4.5307 -26.4295,52.1039 -124.596,123.0858 -308.0923,174.4346 -487.8127,137.4333 -60.4103,-12.0821 -185.76151,-56.6345 -243.15122,-86.0846 -236.3551,-120.8205 -432.68838,-313.3781 -562.57042,-553.5088 -19.63328,-36.2461 -33.98072,-67.9615 -32.47051,-70.2269 2.2654,-1.5103 27.18459,0 55.87948,4.5308 74.00256,10.5717 134.41277,9.0615 210.68073,-3.7757 89.8603,-15.8577 164.61787,-46.0628 279.39745,-114.0243 54.3691,-31.7154 122.33072,-70.9821 151.78072,-86.8398 147.24997,-80.7987 331.50117,-80.0435 488.56777,2.2654 81.5539,42.2872 178.9654,138.1885 218.9871,213.7013 15.8578,29.4499 34.736,61.1653 43.0424,71.7371 23.409,29.45 37.7564,117.8001 37.7564,228.0488 0,117.0447 -20.3886,228.0485 -68.7167,379.0743 -29.45,94.3908 -37.0012,137.4332 -25.6743,155.5562 3.7757,6.0411 17.368,6.7962 41.5321,3.7757 45.3076,-6.041 92.1256,7.5512 121.5756,34.7359 17.3679,15.8576 21.8986,27.1846 21.8986,52.1038 0,37.7565 -7.5512,52.1039 -53.614,105.7179 -51.3487,59.6551 -54.3692,70.9821 -55.1244,200.109 -0.7552,98.1667 -3.0205,117.0448 -15.8577,139.6987 l -15.1026,26.4295 -2.2653,-26.4295 c -7.5512,-96.6564 -49.0833,-175.9448 -111.759,-218.2321 l -34.736,-22.6538 21.1437,-5.2858 c 12.0821,-3.0206 32.4706,-6.041 45.3077,-6.041 19.6333,0 24.9193,-3.7757 32.4705,-24.9193 6.7962,-18.8782 18.8782,-30.2051 46.0629,-43.7975 37.0012,-18.8782 67.9614,-50.5936 67.9614,-69.4717 0,-43.7975 -52.8589,-92.8808 -98.9217,-92.8808 -118.5552,0.7552 -267.3154,218.232 -292.9896,428.9128 -16.6129,136.6782 34.7358,228.0486 128.3717,228.0486 36.2461,0 234.0897,-56.6346 277.887,-79.2884 40.777,-20.3884 61.1654,-67.2064 83.0641,-185.0064 9.8167,-52.859 41.5321,-116.2897 55.8795,-111.0038 6.041,2.2654 9.0616,28.6949 9.0616,84.5743 l -0.7552,80.7988 17.368,-21.1436 17.368,-21.8988 -0.7552,124.5961 c 0,109.4936 1.5102,129.8821 15.8577,167.6386 32.4705,87.5947 80.0436,128.3717 246.1718,212.946 83.8192,42.2872 157.8217,97.4115 149.5152,111.0039 -2.2652,3.7755 -13.5922,6.7961 -26.4293,6.7961 -18.8783,0 -21.8988,3.0204 -21.8988,21.1435 0,43.7975 -22.6538,98.1668 -56.6346,135.9231 -18.8781,20.3885 -33.9808,40.7769 -33.9808,44.5526 0,17.368 33.2257,35.491 77.0232,41.532 37.0012,4.5308 52.1038,11.3269 70.2268,28.6949 37.0013,36.2461 70.2269,44.5526 231.8243,60.4102 84.5743,8.3065 188.0269,20.3885 230.3141,27.1847 86.8398,12.8372 95.9013,10.5717 126.1064,-29.45 22.6538,-30.2052 211.4358,-408.5243 218.9871,-438.7294 8.3064,-33.9808 -8.3064,-70.9821 -42.2872,-92.1256 -55.1243,-35.491 -63.4307,-92.8808 -23.409,-172.9244 24.9193,-49.8384 125.3513,-201.6192 142.7193,-215.2115 12.0819,-10.5718 12.8371,-9.8167 7.5512,7.5513 -12.8371,43.0424 -13.5923,162.3525 -1.5102,225.7833 25.6743,134.4128 20.3885,152.5359 -150.2705,502.1602 -110.2487,226.5384 -117.8,268.8255 -52.8589,296.0102 33.9807,13.5922 70.982,52.8589 89.8602,93.6358 24.1641,51.3487 21.8987,148.0051 -3.7757,203.8846 -30.2051,64.1858 -83.0641,129.882 -151.7808,188.0269 -67.2062,57.3898 -128.3716,91.3705 -194.823,107.2281 -44.5525,10.5719 -327.7254,12.082 -514.9972,2.2654 -83.8193,-3.7756 -96.6565,-6.041 -96.6565,-17.3679 0,-7.5513 -4.5307,-18.8782 -9.8166,-26.4295 -9.8167,-12.8372 -13.5923,-12.082 -71.7372,21.1436 -33.9808,18.8782 -63.4307,34.7359 -65.6962,34.7359 -2.2653,0 1.5103,-12.8372 7.5513,-27.9397 z m 459.8731,-3.0206 c 24.9192,-11.3269 18.123,-21.8987 -13.5924,-21.8987 -22.6537,0 -42.2871,11.3269 -42.2871,24.1642 0,9.0615 33.9808,7.5512 55.8795,-2.2655 z m -129.8821,-42.2871 c 21.1436,-20.3885 28.6949,-43.7975 12.082,-38.5115 -9.8166,3.7756 -46.8179,58.8999 -38.5115,58.8999 3.0206,0 15.1026,-9.0615 26.4295,-20.3884 z m 448.5461,-25.6744 c 20.3884,-13.5923 58.1448,-33.9807 84.5744,-45.3076 25.6742,-12.0821 46.8179,-24.9193 46.8179,-29.4501 0,-10.5718 3.0205,-11.3269 -87.5949,26.4295 -92.1256,38.5115 -118.5551,54.3692 -112.5141,64.1859 8.3065,13.5923 30.2051,8.3064 68.7167,-15.8577 z m -271.8461,-37.0013 c 60.4102,-30.2051 114.7794,-83.0641 84.5743,-83.0641 -20.3884,0 -159.3321,89.1051 -153.2909,98.1668 7.5512,12.0819 21.1435,9.0615 68.7166,-15.1027 z m 128.3717,10.5718 c 35.4911,-15.1025 70.9821,-39.2667 70.9821,-49.0832 0,-22.6539 -98.1666,24.1639 -109.4936,51.3486 -4.5308,12.8372 3.7757,12.0821 38.5115,-2.2654 z m -193.3127,-74.7576 c 5.2859,-6.7962 7.5512,-13.5923 5.2859,-16.6129 -6.0411,-5.2859 -27.9398,11.327 -27.9398,21.1436 0,10.5718 12.0821,8.3064 22.6539,-4.5307 z m -211.4359,-15.1027 c 0,-15.8576 -8.3063,-33.9807 -15.8577,-33.9807 -3.7756,0 -6.7962,12.0821 -6.7962,26.4295 0,19.6333 2.2654,24.9193 11.3269,21.8987 6.0411,-3.0204 11.327,-9.0616 11.327,-14.3475 z m -480.2614,-10.5717 c 2.2653,-3.7756 -2.2655,-8.3063 -11.327,-10.5717 -12.0819,-3.0206 -13.5923,-2.2655 -6.041,6.7961 9.8167,12.082 12.0821,12.8371 17.368,3.7756 z m 1397.742,-1118.3446 c -2.2654,-3.7757 -11.327,-7.5514 -19.6334,-7.5514 -7.5511,0 -14.3473,3.7757 -14.3473,7.5514 0,4.5307 9.0614,7.5512 19.6333,7.5512 10.5718,0 17.368,-3.0205 14.3474,-7.5512 z"
             id="path1-2"
             style="fill:#ffffff;fill-opacity:1;stroke-width:0.755131" /><path
             d="m 2734.495,3290.5058 c -18.1231,-5.2859 -62.6756,-15.1025 -98.9218,-21.1436 -119.3102,-21.1436 -268.0705,-77.7782 -365.482,-140.4538 -45.3076,-28.6949 -43.7974,-31.7154 51.3487,-80.0436 67.9615,-33.9807 72.4924,-35.491 100.432,-27.1846 27.9399,8.3065 33.2258,7.5513 80.0436,-17.3679 61.9206,-31.7154 109.4936,-34.736 202.3744,-10.5718 63.4308,15.8576 116.2897,19.6333 157.0666,10.5718 31.7154,-6.7962 67.2065,8.3064 72.4923,30.9603 3.0205,9.8166 -1.5103,40.0217 -8.3064,65.696 -12.082,43.7975 -12.082,50.5937 -1.5103,70.9821 6.7962,12.0821 27.9398,35.4911 48.3282,51.3487 46.0629,37.7564 49.0833,43.0423 36.2461,56.6346 -9.0614,9.0615 -15.8576,9.0615 -36.2461,1.5103 -35.491,-12.8372 -58.8999,-11.3269 -96.6563,6.041 -38.5117,17.3679 -92.8808,18.1231 -141.209,3.0205 z m -49.0833,-83.8192 c 49.8385,-13.5923 66.4512,-27.9398 46.8179,-40.7769 -6.041,-3.0205 -22.6539,-4.5308 -37.0012,-2.2654 -17.3681,2.2654 -58.9001,-5.2859 -122.3307,-22.6539 -109.4937,-30.2051 -175.1899,-39.2666 -202.3744,-28.6948 l -18.8783,7.5513 18.8783,8.3064 c 50.5935,21.8987 239.3756,90.6153 251.4576,90.6153 7.5512,0.7552 36.2462,-5.2858 63.4308,-12.082 z m 57.3897,-141.9641 c -1.5102,-10.5718 -89.8603,-33.2257 -131.3923,-33.9808 -18.8782,0 -40.7768,4.5309 -49.0834,10.5719 -13.5922,10.5717 -13.5922,11.3269 4.5308,15.8576 66.4513,15.8577 178.2102,21.1436 175.9449,7.5513 z"
             id="path2-7"
             style="fill:#ffffff;fill-opacity:1;stroke-width:0.755131" /><path
             d="m 1458.3286,3045.0892 c -17.368,-9.0615 -35.4911,-21.8988 -38.5116,-28.6949 -12.8372,-24.1641 -24.9192,-110.2487 -19.6334,-144.2295 l 5.286,-33.9807 24.9191,28.6949 c 13.5924,15.1025 28.6951,44.5525 33.9809,64.1858 19.6334,74.0026 41.5321,85.3295 85.3295,46.8179 43.7974,-37.7564 81.5537,-27.1845 70.2268,19.6334 -3.7756,13.5923 -15.8576,24.1641 -44.5524,37.7565 -59.6553,27.1845 -80.0437,28.6947 -117.0449,9.8166 z"
             id="path4-0"
             style="fill:#ffffff;fill-opacity:1;stroke-width:0.755131" /><path
             d="m 2901.3783,2739.2623 c -15.8577,-33.2257 234.618,-122.2381 67.2136,-23.253 50.8412,-7.2631 533.7843,-72.687 -25.6815,-179.1213 -14.3474,-3.0205 -21.1436,-9.8167 -21.1436,-19.6333 0,-13.5923 1.5103,-13.5923 32.4704,-3.0206 26.632,9.7651 281.8088,83.138 304.3167,-0.7551 7.5512,-30.2051 -6.0411,-38.5116 -39.2666,-22.6539 -26.4296,12.0822 -33.9808,12.0822 -153.291,0 -168.3936,-17.3678 -232.5795,-29.4499 -255.9885,-46.8179 -11.3268,-8.3064 -31.7153,-33.2256 -45.3077,-55.8794 -25.6743,-42.2872 -26.4295,-48.3282 -12.8371,-128.3718 5.2859,-26.4295 3.7756,-27.9397 -24.1641,-41.532 -33.9808,-17.368 -46.8179,-45.3077 -34.7359,-78.5333 7.5512,-20.3886 6.7961,-21.8987 -13.5924,-29.4501 -22.6538,-7.5513 -24.164,-12.082 -21.8986,-47.573 0.7551,-16.6128 -3.7757,-21.1437 -26.4295,-28.695 -33.9808,-11.3268 -76.268,-2.2653 -140.4539,30.9603 -27.1846,13.5924 -65.696,24.9192 -95.9012,28.6949 -27.9398,3.7756 -68.7166,13.5924 -90.6153,22.6539 -21.8988,9.0616 -53.6142,15.8577 -70.227,15.8577 -37.7564,0 -73.2474,15.1025 -96.6564,40.7768 -13.5923,14.3474 -25.6744,19.6334 -47.5731,19.6334 -29.4499,0 -30.9602,1.5103 -39.2666,39.2667 -5.2859,24.164 -33.2258,34.7358 -64.1859,24.164 -14.3474,-5.2859 -22.6539,-16.6128 -30.9602,-40.7768 -6.0411,-18.8783 -14.3475,-38.5116 -17.368,-43.0424 -4.5307,-7.5513 3.0205,-9.8166 31.7154,-9.8166 42.2871,0 45.3077,-10.5719 11.3269,-30.9603 l -19.6334,-12.0821 55.8794,-30.2051 c 75.5129,-42.2871 135.1681,-88.3499 202.3744,-157.8217 74.0026,-76.268 98.9219,-86.8398 203.1295,-89.1051 44.5525,-0.7552 87.5949,-6.041 96.6564,-10.5719 22.6539,-12.8371 33.9807,-34.7358 27.9398,-58.1448 -3.7758,-15.1025 -0.7552,-19.6333 14.3474,-25.6744 18.1231,-6.7961 166.8833,-23.409 211.4359,-23.409 27.9396,0 58.1448,30.2051 58.1448,59.6553 0,33.2255 11.3269,34.7358 34.7359,4.5307 30.2051,-40.0219 45.3076,-35.491 50.5935,16.6128 7.5513,74.7577 38.5116,98.9218 151.7808,119.3103 77.7782,13.5922 139.6988,41.532 170.659,76.2679 22.6538,26.4294 47.573,119.3102 72.4923,271.091 24.164,147.25 10.5717,425.137 -24.1642,477.2409 -14.3474,21.8987 -40.0217,21.8987 -67.9614,0.7551 -24.1642,-19.6333 -43.0424,-20.3885 -176.7,-9.8167 -43.7974,3.0206 -88.3501,10.5718 -99.6769,15.8577 -27.1847,14.3474 -27.1847,14.3474 -41.5321,-16.6128 z m 358.6858,-65.6961 c 10.5717,-12.0821 20.3885,-90.6154 13.5924,-107.2283 -3.7756,-10.5718 4.1471,-19.0392 -13.2208,-7.7123 -85.8676,56.2581 -37.0117,161.1391 -0.3714,114.9406 z m -47.573,-265.05 c 30.9602,-12.8371 49.0833,-39.2666 54.3692,-77.7782 4.5307,-35.4909 -16.6128,-161.5974 -31.7154,-191.8025 -10.5718,-20.3885 -13.5923,-21.1435 -44.5526,-17.368 -27.1845,3.7758 -38.5114,1.5103 -66.4513,-15.1025 -18.8781,-10.5719 -40.7768,-19.6334 -49.0832,-19.6334 -33.9808,0 -59.6551,-15.8576 -80.0436,-50.5936 l -21.1436,-34.7359 -77.7781,4.5308 c -43.0425,3.0206 -83.8193,6.7962 -90.6154,9.8167 -16.6129,6.0411 -15.1026,25.6743 1.5101,25.6743 7.5514,0 20.3886,4.5309 27.9399,10.5719 13.5922,9.8166 12.082,11.327 -18.1232,26.4295 -39.2666,20.3884 -43.0422,30.2051 -26.4294,61.9205 6.7962,13.5923 12.8372,37.7564 12.8372,53.6141 0,25.6742 1.5102,27.9397 16.6128,24.1641 26.4294,-6.7963 29.45,9.0615 8.3064,46.8178 -21.1437,37.7565 -24.9192,72.4924 -9.8167,83.8193 12.8372,10.5717 120.8205,44.5526 171.4141,54.3692 22.6538,4.5307 48.3282,9.8167 56.6346,11.327 39.2668,7.5512 141.9641,3.7756 166.1282,-6.0411 z m -834.4165,-359.441 18.8781,-15.1026 h -17.3679 c -22.6538,0 -48.3282,13.5924 -43.0423,23.409 6.7962,10.5719 20.3885,8.3065 41.5321,-8.3064 z m 385.1152,-268.0704 c 0,-2.2654 -7.5512,-6.7962 -16.6128,-10.5719 -39.2667,-14.3473 -51.3486,-16.6127 -51.3486,-9.0615 0,4.5308 11.327,11.3269 24.9192,15.1027 28.6948,8.3062 43.0422,9.8166 43.0422,4.5307 z"
             id="path9-9"
             style="fill:#ffffff;fill-opacity:1;stroke-width:0.755131"
             sodipodi:nodetypes="cccscccccccccccsccsscsccccsccccccccsscccccccccccccccccccsccccscccscsccccccsccscscs" /><path
             d="m 3023.709,2356.4124 c -12.082,-9.0615 -9.8166,-11.3269 25.6744,-15.1026 21.1436,-2.2654 44.5525,-2.2654 51.3487,0 10.5717,4.5308 10.5717,6.0411 -2.2654,15.1026 -17.3679,12.8372 -56.6345,12.8372 -74.7577,0 z"
             id="path10-3"
             style="fill:#ffffff;fill-opacity:1;stroke-width:0.755131" /><path
             d="m 3125.6513,2327.7175 c -14.3475,-9.0615 -33.9807,-23.409 -43.7974,-31.7154 -12.8371,-12.082 -27.9398,-16.6128 -55.1244,-17.3679 -43.0422,-0.7551 -59.6551,-11.327 -47.573,-31.7154 13.5923,-21.8987 79.2884,-61.9205 101.9423,-61.9205 37.7563,0 102.6974,29.45 126.8616,57.3897 28.6948,31.7153 28.6948,43.0423 3.7755,76.268 -22.6538,29.4499 -46.8179,32.4705 -86.0846,9.0615 z"
             id="path11-6"
             style="fill:#ffffff;fill-opacity:1;stroke-width:0.755131" /><path
             d="m 1892.5272,2233.3265 c -10.5718,-10.5717 -5.2859,-23.4089 13.5923,-31.7154 26.4294,-12.0821 27.9397,-12.0821 24.9193,12.082 -2.2654,19.6334 -25.6744,32.4706 -38.5116,19.6334 z"
             id="path15-0"
             style="fill:#ffffff;fill-opacity:1;stroke-width:0.755131" /><path
             d="m 3233.5039,1641.9042 c -140.7906,60.069 -310.1102,35.4663 -420.4702,-61.5667 l -26.1099,-23.3851 49.4025,6.0001 c 65.2119,7.612 106.337,-0.3168 174.5317,-35.6401 101.3054,-53.5672 189.1444,-142.4809 243.2214,-248.1214 25.494,-49.0752 27.8007,-45.3195 -46.8302,-72.5899 -101.2614,-35.7951 -258.8536,-36.985 -361.9477,-2.0313 -47.898,16.7029 -116.2776,69.4756 -135.7371,105.6166 l -10.5497,18.7839 2.0099,-36.3259 c 2.436,-42.4597 26.9723,-114.7135 57.244,-166.0249 29.7252,-50.8357 121.0141,-130.26495 174.9252,-152.19995 227.7912,-92.5454 484.6141,-85.4891 727.94,19.7535 40.8479,18.24575 81.1486,36.96695 89.518,42.17125 13.2681,8.6256 13.6734,10.1938 2.073,14.5244 -37.8673,12.7778 -118.1801,67.2892 -153.5914,103.863 -56.4673,58.7361 -82.9625,100.0382 -133.9935,213.5936 -25.5157,56.7781 -57.0444,118.7878 -69.6387,137.4299 -32.0324,47.0804 -112.7222,114.4058 -161.9973,136.149 z"
             id="path16-6"
             style="fill:#ffffff;fill-opacity:1;stroke-width:0.724598" /></g></g></g></g></svg>
