<?xml version="1.0" encoding="UTF-8" standalone="no"?>
<svg
   version="1.0"
   width="482.65302pt"
   height="469.55002pt"
   viewBox="0 0 482.65301 469.55002"
   preserveAspectRatio="xMidYMid"
   id="svg16"
   sodipodi:docname="avatar1080.svg"
   inkscape:export-filename="avatar.png"
   inkscape:export-xdpi="44.752647"
   inkscape:export-ydpi="44.752647"
   xmlns:inkscape="http://www.inkscape.org/namespaces/inkscape"
   xmlns:sodipodi="http://sodipodi.sourceforge.net/DTD/sodipodi-0.dtd"
   xmlns="http://www.w3.org/2000/svg"
   xmlns:svg="http://www.w3.org/2000/svg">
  <defs
     id="defs16" />
  <sodipodi:namedview
     id="namedview16"
     pagecolor="#ffffff"
     bordercolor="#cccccc"
     borderopacity="1"
     inkscape:showpageshadow="0"
     inkscape:pageopacity="1"
     inkscape:pagecheckerboard="0"
     inkscape:deskcolor="#d1d1d1"
     inkscape:document-units="pt" />
  <g
     transform="matrix(0.1,0,0,-0.1,-8.18556,477)"
     fill="#000000"
     stroke="none"
     id="g16">
    <path
       d="m 2455,4733 c 9,-21 23,-46 33,-57 25,-28 91,-56 135,-56 72,0 27,-43 -57,-54 -59,-7 -122,-42 -165,-91 -17,-20 -31,-33 -31,-30 0,14 42,86 76,130 l 36,48 -93,-6 c -119,-7 -289,-51 -478,-123 -359,-138 -569,-291 -674,-493 -60,-114 -71,-168 -73,-341 -1,-126 -5,-168 -23,-225 -36,-119 -31,-146 44,-250 110,-154 148,-241 281,-643 105,-320 159,-440 289,-642 152,-237 195,-341 215,-517 10,-93 1,-297 -17,-358 -24,-84 -212,-149 -428,-148 -169,2 -343,49 -492,134 l -54,31 17,27 c 113,177 259,313 429,399 56,28 190,71 244,78 53,7 162,-11 204,-33 51,-26 41,-6 -35,69 -165,163 -408,231 -646,182 -80,-16 -246,-75 -322,-114 C 557,1490 297,1235 125,917 99,869 80,827 82,824 c 3,-2 36,0 74,6 98,14 178,12 279,-5 119,-21 218,-61 370,-151 72,-42 162,-94 201,-115 195,-107 439,-106 647,3 108,56 237,183 290,283 21,39 46,81 57,95 31,39 50,156 50,302 0,155 -27,302 -91,502 -39,125 -49,182 -34,206 5,8 23,9 55,5 60,-8 122,10 161,46 23,21 29,36 29,69 0,50 -10,69 -71,140 -68,79 -72,94 -73,265 -1,130 -4,155 -21,185 l -20,35 -3,-35 c -10,-128 -65,-233 -148,-289 l -46,-30 28,-7 c 16,-4 43,-8 60,-8 26,0 33,-5 43,-33 9,-25 25,-40 61,-58 49,-25 90,-67 90,-92 0,-58 -70,-123 -131,-123 -157,1 -354,289 -388,568 -22,181 46,302 170,302 48,0 310,-75 368,-105 54,-27 81,-89 110,-245 13,-70 55,-154 74,-147 8,3 12,38 12,112 l -1,107 23,-28 23,-29 -1,165 c 0,145 2,172 21,222 43,116 106,170 326,282 111,56 209,129 198,147 -3,5 -18,9 -35,9 -25,0 -29,4 -29,28 0,58 -30,130 -75,180 -25,27 -45,54 -45,59 0,23 44,47 102,55 49,6 69,15 93,38 49,48 93,59 307,80 112,11 249,27 305,36 115,17 127,14 167,-39 30,-40 280,-541 290,-581 11,-45 -11,-94 -56,-122 -73,-47 -84,-123 -31,-229 33,-66 166,-267 189,-285 16,-14 17,-13 10,10 -17,57 -18,215 -2,299 34,178 27,202 -199,665 -146,300 -156,356 -70,392 45,18 94,70 119,124 32,68 29,196 -5,270 -40,85 -110,172 -201,249 -89,76 -170,121 -258,142 -59,14 -434,16 -682,3 -111,-5 -128,-8 -128,-23 0,-10 -6,-25 -13,-35 -13,-17 -18,-16 -95,28 -45,25 -84,46 -87,46 -3,0 2,-17 10,-37 z m 609,-4 c 33,-15 24,-29 -18,-29 -30,0 -56,15 -56,32 0,12 45,10 74,-3 z m -172,-56 c 28,-27 38,-58 16,-51 -13,5 -62,78 -51,78 4,0 20,-12 35,-27 z m 594,-34 c 27,-18 77,-45 112,-60 34,-16 62,-33 62,-39 0,-14 4,-15 -116,35 -122,51 -157,72 -149,85 11,18 40,11 91,-21 z m -360,-49 c 80,-40 152,-110 112,-110 -27,0 -211,118 -203,130 10,16 28,12 91,-20 z m 170,14 c 47,-20 94,-52 94,-65 0,-30 -130,32 -145,68 -6,17 5,16 51,-3 z m -256,-99 c 7,-9 10,-18 7,-22 -8,-7 -37,15 -37,28 0,14 16,11 30,-6 z m -280,-20 c 0,-21 -11,-45 -21,-45 -5,0 -9,16 -9,35 0,26 3,33 15,29 8,-4 15,-12 15,-19 z m -636,-14 c 3,-5 -3,-11 -15,-14 -16,-4 -18,-3 -8,9 13,16 16,17 23,5 z M 3975,2990 c -3,-5 -15,-10 -26,-10 -10,0 -19,5 -19,10 0,6 12,10 26,10 14,0 23,-4 19,-10 z"
       id="path1"
       style="fill:#64748b;fill-opacity:1" />
    <path
       d="m 3362,3134 c -24,-7 -83,-20 -131,-28 -158,-28 -355,-103 -484,-186 -60,-38 -58,-42 68,-106 90,-45 96,-47 133,-36 37,11 44,10 106,-23 82,-42 145,-46 268,-14 84,21 154,26 208,14 42,-9 89,11 96,41 4,13 -2,53 -11,87 -16,58 -16,67 -2,94 9,16 37,47 64,68 61,50 65,57 48,75 -12,12 -21,12 -48,2 -47,-17 -78,-15 -128,8 -51,23 -123,24 -187,4 z m -65,-111 c 66,-18 88,-37 62,-54 -8,-4 -30,-6 -49,-3 -23,3 -78,-7 -162,-30 -145,-40 -232,-52 -268,-38 l -25,10 25,11 c 67,29 317,120 333,120 10,1 48,-7 84,-16 z m 76,-188 c -2,-14 -119,-44 -174,-45 -25,0 -54,6 -65,14 -18,14 -18,15 6,21 88,21 236,28 233,10 z"
       id="path2"
       style="fill:#64748b;fill-opacity:1" />
    <path
       d="m 1672,2809 c -23,-12 -47,-29 -51,-38 -17,-32 -33,-146 -26,-191 l 7,-45 33,38 c 18,20 38,59 45,85 26,98 55,113 113,62 58,-50 108,-36 93,26 -5,18 -21,32 -59,50 -79,36 -106,38 -155,13 z"
       id="path4"
       style="fill:#64748b;fill-opacity:1" />
    <path
       d="m 3583,2404 c -21,-44 310.6996,-161.8773 89.0094,-30.7935 67.3281,-9.6183 706.8793,-96.2578 -34.0094,-237.2065 -19,-4 -28,-13 -28,-26 0,-18 2,-18 43,-4 35.2681,12.9316 373.1933,110.0978 403,-1 10,-40 -8,-51 -52,-30 -35,16 -45,16 -203,0 -223,-23 -308,-39 -339,-62 -15,-11 -42,-44 -60,-74 -34,-56 -35,-64 -17,-170 7,-35 5,-37 -32,-55 -45,-23 -62,-60 -46,-104 10,-27 9,-29 -18,-39 -30,-10 -32,-16 -29,-63 1,-22 -5,-28 -35,-38 -45,-15 -101,-3 -186,41 -36,18 -87,33 -127,38 -37,5 -91,18 -120,30 -29,12 -71,21 -93,21 -50,0 -97,20 -128,54 -18,19 -34,26 -63,26 -39,0 -41,2 -52,52 -7,32 -44,46 -85,32 -19,-7 -30,-22 -41,-54 -8,-25 -19,-51 -23,-57 -6,-10 4,-13 42,-13 56,0 60,-14 15,-41 l -26,-16 74,-40 c 100,-56 179,-117 268,-209 98,-101 131,-115 269,-118 59,-1 116,-8 128,-14 30,-17 45,-46 37,-77 -5,-20 -1,-26 19,-34 24,-9 221,-31 280,-31 37,0 77,40 77,79 0,44 15,46 46,6 40,-53 60,-47 67,22 10,99 51,131 201,158 103,18 185,55 226,101 30,35 63,158 96,359 32,195 14,563 -32,632 -19,29 -53,29 -90,1 -32,-26 -57,-27 -234,-13 -58,4 -117,14 -132,21 -36,19 -36,19 -55,-22 z m 475,-87 c 14,-16 27,-120 18,-142 -5,-14 5.492,-25.2134 -17.508,-10.2134 -113.7125,74.5013 -49.0138,213.3931 -0.492,152.2134 z m -63,-351 c 41,-17 65,-52 72,-103 6,-47 -22,-214 -42,-254 -14,-27 -18,-28 -59,-23 -36,5 -51,2 -88,-20 -25,-14 -54,-26 -65,-26 -45,0 -79,-21 -106,-67 l -28,-46 -103,6 c -57,4 -111,9 -120,13 -22,8 -20,34 2,34 10,0 27,6 37,14 18,13 16,15 -24,35 -52,27 -57,40 -35,82 9,18 17,50 17,71 0,34 2,37 22,32 35,-9 39,12 11,62 -28,50 -33,96 -13,111 17,14 160,59 227,72 30,6 64,13 75,15 52,10 188,5 220,-8 z m -1105,-476 25,-20 h -23 c -30,0 -64,18 -57,31 9,14 27,11 55,-11 z m 510,-355 c 0,-3 -10,-9 -22,-14 -52,-19 -68,-22 -68,-12 0,6 15,15 33,20 38,11 57,13 57,6 z"
       id="path9"
       style="fill:#64748b;fill-opacity:1"
       sodipodi:nodetypes="cccscccccccccccsccsscsccccsccccccccsscccccccccccccccccccsccccscccscsccccccsccscscs" />
    <path
       d="m 3745,1897 c -16,-12 -13,-15 34,-20 28,-3 59,-3 68,0 14,6 14,8 -3,20 -23,17 -75,17 -99,0 z"
       id="path10"
       style="fill:#64748b;fill-opacity:1" />
    <path
       d="m 3880,1859 c -19,-12 -45,-31 -58,-42 -17,-16 -37,-22 -73,-23 -57,-1 -79,-15 -63,-42 18,-29 105,-82 135,-82 50,0 136,39 168,76 38,42 38,57 5,101 -30,39 -62,43 -114,12 z"
       id="path11"
       style="fill:#64748b;fill-opacity:1" />
    <path
       d="m 2247,1734 c -14,-14 -7,-31 18,-42 35,-16 37,-16 33,16 -3,26 -34,43 -51,26 z"
       id="path15"
       style="fill:#64748b;fill-opacity:1" />
    <path
       d="M 3818,1061 C 3617,996 3463,817 3436,616 l -6,-48 46,51 c 61,67 111,96 214,121 154,36 326,23 478,-38 71,-28 70,-22 17,-118 -73,-129 -236,-273 -375,-330 -65,-26 -184,-33 -237,-13 l -28,10 35,-36 c 41,-42 132,-95 210,-121 77,-26 244,-26 320,0 321,110 582,350 740,680 26,56 51,112 55,125 6,21 5,23 -11,17 -51,-21 -184,-37 -254,-31 -112,10 -177,29 -333,101 -78,36 -167,72 -197,80 -76,20 -221,17 -292,-5 z"
       id="path16"
       style="fill:#64748b;fill-opacity:1" />
  </g>
</svg>
