<?xml version="1.0" encoding="UTF-8"?>
<svg version="1.1" xmlns="http://www.w3.org/2000/svg" width="512" height="512">
<path d="M0 0 C0.64888184 0.34111816 1.29776367 0.68223633 1.96630859 1.03369141 C19.73079968 10.42555606 35.83561095 22.31942117 50.6484375 35.87109375 C52.64459463 37.67824597 54.68076365 39.40357146 56.75 41.125 C68.72258173 51.62810993 78.71704981 64.1246436 88 77 C88.4429541 77.61278809 88.8859082 78.22557617 89.34228516 78.85693359 C113.94653146 113.31044023 128.61305071 154.17658315 134 196 C134.09571289 196.68634521 134.19142578 197.37269043 134.29003906 198.07983398 C135.4029117 207.23111733 135.24391844 216.48331467 135.25 225.6875 C135.25101212 227.06201324 135.25101212 227.06201324 135.25204468 228.46429443 C135.23560129 242.52907278 134.64177299 256.15319186 132 270 C131.76651855 271.32813721 131.76651855 271.32813721 131.52832031 272.68310547 C125.54598382 306.31434445 112.49841479 339.85251407 93 368 C92.5879834 368.60295898 92.1759668 369.20591797 91.75146484 369.82714844 C77.19439475 391.04479113 59.49953539 411.31744489 39 427 C38.44618652 427.42490723 37.89237305 427.84981445 37.32177734 428.28759766 C5.21646387 452.77858479 -31.26032659 469.77557498 -70.875 477.8125 C-72.31588989 478.10483521 -72.31588989 478.10483521 -73.78588867 478.40307617 C-89.22324347 481.35822323 -104.37494845 482.3789719 -120.0625 482.3125 C-121.40787338 482.30976578 -121.40787338 482.30976578 -122.78042603 482.30697632 C-144.82476623 482.23176976 -165.6575522 479.57279455 -187 474 C-187.82918945 473.78504883 -188.65837891 473.57009766 -189.51269531 473.34863281 C-222.17712556 464.6873154 -252.49677461 448.84819863 -279 428 C-279.87527344 427.31808594 -280.75054687 426.63617188 -281.65234375 425.93359375 C-334.20830187 384.02774168 -367.71250675 322.16394443 -375.71777344 255.56567383 C-383.25546494 187.04179843 -363.293882 120.02965938 -321 66 C-320.57557617 65.45553223 -320.15115234 64.91106445 -319.71386719 64.35009766 C-307.65200667 49.05342162 -293.4253752 34.60336281 -277.62695312 23.17822266 C-275.9806663 21.98599873 -274.35721121 20.76686578 -272.734375 19.54296875 C-196.55890832 -37.18914866 -90.46440351 -46.36421291 0 0 Z " fill="#E2E5E4" transform="translate(377,30)"/>
<path d="M0 0 C0.64888184 0.34111816 1.29776367 0.68223633 1.96630859 1.03369141 C19.73079968 10.42555606 35.83561095 22.31942117 50.6484375 35.87109375 C52.64459463 37.67824597 54.68076365 39.40357146 56.75 41.125 C68.72258173 51.62810993 78.71704981 64.1246436 88 77 C88.4429541 77.61278809 88.8859082 78.22557617 89.34228516 78.85693359 C113.94653146 113.31044023 128.61305071 154.17658315 134 196 C134.09571289 196.68634521 134.19142578 197.37269043 134.29003906 198.07983398 C135.4029117 207.23111733 135.24391844 216.48331467 135.25 225.6875 C135.25101212 227.06201324 135.25101212 227.06201324 135.25204468 228.46429443 C135.23560129 242.52907278 134.64177299 256.15319186 132 270 C131.76651855 271.32813721 131.76651855 271.32813721 131.52832031 272.68310547 C125.54598382 306.31434445 112.49841479 339.85251407 93 368 C92.5879834 368.60295898 92.1759668 369.20591797 91.75146484 369.82714844 C77.19439475 391.04479113 59.49953539 411.31744489 39 427 C38.44618652 427.42490723 37.89237305 427.84981445 37.32177734 428.28759766 C5.21646387 452.77858479 -31.26032659 469.77557498 -70.875 477.8125 C-72.31588989 478.10483521 -72.31588989 478.10483521 -73.78588867 478.40307617 C-89.22324347 481.35822323 -104.37494845 482.3789719 -120.0625 482.3125 C-121.40787338 482.30976578 -121.40787338 482.30976578 -122.78042603 482.30697632 C-144.82476623 482.23176976 -165.6575522 479.57279455 -187 474 C-187.82918945 473.78504883 -188.65837891 473.57009766 -189.51269531 473.34863281 C-222.17712556 464.6873154 -252.49677461 448.84819863 -279 428 C-279.87527344 427.31808594 -280.75054687 426.63617188 -281.65234375 425.93359375 C-334.20830187 384.02774168 -367.71250675 322.16394443 -375.71777344 255.56567383 C-383.25546494 187.04179843 -363.293882 120.02965938 -321 66 C-320.57557617 65.45553223 -320.15115234 64.91106445 -319.71386719 64.35009766 C-307.65200667 49.05342162 -293.4253752 34.60336281 -277.62695312 23.17822266 C-275.9806663 21.98599873 -274.35721121 20.76686578 -272.734375 19.54296875 C-196.55890832 -37.18914866 -90.46440351 -46.36421291 0 0 Z M-274.42773438 31.68798828 C-275.97223605 32.97683176 -277.54068318 34.23680471 -279.109375 35.49609375 C-293.10986634 46.84282581 -306.08723336 59.74780805 -316.7421875 74.29785156 C-318.03039472 76.04113199 -319.35456407 77.75167698 -320.6875 79.4609375 C-343.29819307 108.82103111 -358.1344934 144.71383897 -365 181 C-365.16226074 181.84304687 -365.32452148 182.68609375 -365.49169922 183.5546875 C-371.94579753 219.04223734 -369.8491234 258.63961908 -359.54638672 293.13427734 C-358.79006564 295.71685362 -358.15347416 298.3272953 -357.5 300.9375 C-355.86166807 306.85721869 -353.4719088 312.3867071 -351 318 C-350.41605885 319.36432334 -349.8327634 320.72892317 -349.25 322.09375 C-337.90742384 348.42138941 -323.46394468 371.48362068 -304.1015625 392.67578125 C-302.26615163 394.70565015 -300.50618556 396.7770936 -298.75 398.875 C-282.36282653 417.5444054 -260.82240955 432.12637364 -239.25 444.125 C-238.37947998 444.6111377 -237.50895996 445.09727539 -236.61206055 445.59814453 C-235.38869995 446.26499268 -235.38869995 446.26499268 -234.140625 446.9453125 C-233.41391602 447.34250488 -232.68720703 447.73969727 -231.93847656 448.14892578 C-229.8950274 449.20100211 -229.8950274 449.20100211 -227 449 C-225.74109221 442.31931227 -225.81594085 435.77847831 -225.8125 429 C-225.80025391 427.76121094 -225.78800781 426.52242188 -225.77539062 425.24609375 C-225.74198457 403.88848627 -231.61830252 387.26015424 -242 369 C-242.56589844 367.98421875 -243.13179688 366.9684375 -243.71484375 365.921875 C-246.87355578 360.36254183 -250.28759016 355.03663717 -253.875 349.75 C-260.4010489 340.112869 -266.56655072 330.02592588 -271.04296875 319.25390625 C-272.26669831 316.37189828 -273.64436962 313.57226772 -275 310.75 C-277.48997064 305.38411327 -279.30041708 300.0502208 -280.9375 294.375 C-282.09431401 290.70041433 -283.51554217 287.17501032 -285 283.625 C-288.06109689 276.23443283 -290.08510876 268.77220563 -292 261 C-293.84199461 253.73487405 -296.07375093 246.90055188 -299 240 C-299.83389902 238.0002358 -300.66721087 236.00022666 -301.5 234 C-302.14001953 232.47826172 -302.14001953 232.47826172 -302.79296875 230.92578125 C-303.85071588 228.36185698 -304.83551099 225.78276155 -305.8125 223.1875 C-310.53798068 211.35474394 -317.0791391 200.13218342 -325.21484375 190.33203125 C-329.52987316 184.95530744 -332.13032817 181.09706819 -331.609375 174.07421875 C-330.72355127 169.60535161 -329.30196138 165.33951937 -327.86181641 161.02661133 C-325.16577951 152.8005145 -324.95540774 144.96580875 -325.05859375 136.34765625 C-325.37205483 109.62141791 -319.04826515 90.45787298 -300.1875 70.8125 C-283.1687412 54.39780208 -261.31554769 43.20954523 -239.234375 35.1953125 C-236.87505956 34.32339157 -234.57746873 33.41227964 -232.265625 32.4296875 C-216.11472872 25.67291525 -196.16101743 18.56925987 -178.57421875 17.68359375 C-177.77822266 17.64169922 -176.98222656 17.59980469 -176.16210938 17.55664062 C-174.93717773 17.49766602 -174.93717773 17.49766602 -173.6875 17.4375 C-172.85154297 17.39431641 -172.01558594 17.35113281 -171.15429688 17.30664062 C-169.10303065 17.20114693 -167.0515352 17.10012685 -165 17 C-165.51949219 17.68964844 -166.03898438 18.37929688 -166.57421875 19.08984375 C-173.10873799 27.55631221 -173.10873799 27.55631221 -178 37 C-177.67 37.99 -177.34 38.98 -177 40 C-176.39671875 39.31292969 -175.7934375 38.62585938 -175.171875 37.91796875 C-174.37265625 37.01691406 -173.5734375 36.11585937 -172.75 35.1875 C-171.96109375 34.29417969 -171.1721875 33.40085938 -170.359375 32.48046875 C-165.85310743 27.74291924 -162.50468205 26.45135232 -156.0625 25.5 C-149.04340343 24.50116178 -149.04340343 24.50116178 -143 21 C-142.11341534 18.40877257 -142.11341534 18.40877257 -142 16 C-143.41152344 15.85304688 -143.41152344 15.85304688 -144.8515625 15.703125 C-157.73452647 14.15610241 -157.73452647 14.15610241 -162 10 C-164.57392655 6.49974274 -166.62352538 3.12942386 -168 -1 C-167.5059668 -0.70230713 -167.01193359 -0.40461426 -166.50292969 -0.09790039 C-164.2550935 1.25254179 -162.00263361 2.59507688 -159.75 3.9375 C-158.97269531 4.40607422 -158.19539062 4.87464844 -157.39453125 5.35742188 C-156.64042969 5.80537109 -155.88632813 6.25332031 -155.109375 6.71484375 C-154.41811523 7.12855225 -153.72685547 7.54226074 -153.01464844 7.96850586 C-151.01142447 8.99415071 -149.19763 9.5497013 -147 10 C-143.75283938 6.51216486 -143.75283938 6.51216486 -143 2 C-129.14 1.67 -115.28 1.34 -101 1 C-100.67 2.65 -100.34 4.3 -100 6 C-98.23863645 8.18331689 -98.23863645 8.18331689 -96.0546875 8.1953125 C-93.02734375 8.09765625 -93.02734375 8.09765625 -90 8 C-90 6.68 -90 5.36 -90 4 C-92.42672567 2.21030974 -92.42672567 2.21030974 -95 1 C-88.9534624 0.95013639 -82.90704753 0.91406318 -76.86035156 0.89013672 C-74.80824699 0.88015002 -72.75615637 0.86655599 -70.70410156 0.84912109 C-42.57510437 0.6163105 -42.57510437 0.6163105 -32 6 C-31.20464844 6.37640625 -30.40929687 6.7528125 -29.58984375 7.140625 C-21.35893036 11.26200322 -14.75743613 16.84647827 -8 23 C-7.23429687 23.69351563 -6.46859375 24.38703125 -5.6796875 25.1015625 C4.94699795 35.22816863 15.00217128 48.84424158 15.6796875 63.96289062 C15.71756427 75.35432986 13.22675643 83.52425914 5.296875 91.9609375 C2.1635817 94.74253462 -1.20475152 96.75545669 -4.8984375 98.7109375 C-7.28431284 99.97230844 -7.28431284 99.97230844 -9 103 C-12.01909102 115.87789269 -1.80486963 130.84754255 4.203125 141.6328125 C6.01328507 145.02489506 7.50107045 148.46096893 9 152 C10.23206861 154.58225288 11.52026295 157.13492527 12.8125 159.6875 C13.3369873 160.73188232 13.3369873 160.73188232 13.87207031 161.79736328 C15.47558111 164.98900874 17.08939587 168.17492267 18.71484375 171.35546875 C21.42041705 176.67711801 23.92271762 181.98598659 26.05859375 187.5625 C26.70707486 189.24155483 27.38893296 190.90797161 28.09765625 192.5625 C30.28164253 197.69760753 31.77130226 202.38737626 32 208 C32.0515625 209.01707031 32.103125 210.03414062 32.15625 211.08203125 C32.32686416 217.41608197 31.89521875 223.12615273 30.5 229.3125 C29.26241294 234.93149719 28.69760524 240.18446221 28.6875 245.9375 C28.68234375 246.62303955 28.6771875 247.3085791 28.671875 248.01489258 C28.73941503 252.98571823 29.75208527 257.23207083 31 262 C31 263.32 31 264.64 31 266 C9.91892348 237.61917819 9.91892348 237.61917819 5 223 C4.34 223 3.68 223 3 223 C3.42300748 209.92906887 3.42300748 209.92906887 8 205 C10.02049175 203.41561439 12.06004613 201.91838428 14.1953125 200.4921875 C16.7500594 198.37982101 17.81177653 196.21695711 18.31835938 192.94165039 C18.38812619 187.01616724 17.07434079 182.73146441 14.5 177.4375 C13.95098022 176.25945801 13.95098022 176.25945801 13.39086914 175.05761719 C12.28107962 172.69457814 11.14606183 170.34563032 10 168 C9.69562012 167.37303223 9.39124023 166.74606445 9.07763672 166.10009766 C7.57165833 163.01399253 6.03170955 159.94620317 4.47265625 156.88671875 C2.73698853 153.47600819 1.03343096 150.05037789 -0.65727234 146.61715698 C-1.97656574 143.93870774 -3.30083395 141.2627292 -4.62521362 138.58679199 C-5.2834435 137.25405781 -5.93968615 135.92034001 -6.59378052 134.58557129 C-13.14645755 119.28639874 -13.14645755 119.28639874 -25 109 C-34.52525082 108.99587651 -44.02620237 110.64705959 -53.41702271 112.09741211 C-66.59136438 114.12661507 -79.59757913 115.69548031 -92.94189453 116.10327148 C-100.21118086 116.437946 -105.94848026 117.80167151 -112 122 C-113.05574219 123.34578125 -113.05574219 123.34578125 -114.1328125 124.71875 C-116.81610252 127.99707923 -119.88397161 128.05329774 -123.875 128.5 C-130.06813157 129.20089244 -133.68920125 130.29731045 -138 135 C-138.81314511 137.5742683 -138.81314511 137.5742683 -138 140 C-136.40782697 141.82933837 -136.40782697 141.82933837 -134.25 143.3125 C-125.58869653 150.48944581 -125.05271825 159.36200505 -124 170 C-121.03 170.33 -118.06 170.66 -115 171 C-123.07753049 179.58237614 -132.62341781 184.614052 -142.98779297 189.95996094 C-166.08464163 201.37706796 -166.08464163 201.37706796 -180.125 221.875 C-180.45757812 222.88304687 -180.79015625 223.89109375 -181.1328125 224.9296875 C-182.75693466 230.67995784 -183.18102555 236.29139204 -183.31640625 242.2421875 C-183.3475779 243.39474533 -183.3475779 243.39474533 -183.37937927 244.57058716 C-183.44433469 247.00530767 -183.50350638 249.44012847 -183.5625 251.875 C-183.6057367 253.5338642 -183.64935257 255.19271856 -183.69335938 256.8515625 C-183.79996003 260.90094104 -183.9013767 264.95041963 -184 269 C-184.45375 268.175 -184.9075 267.35 -185.375 266.5 C-185.91125 265.675 -186.4475 264.85 -187 264 C-187.66 264 -188.32 264 -189 264 C-188.83628906 264.92941406 -188.67257813 265.85882813 -188.50390625 266.81640625 C-187.78520824 271.84729229 -187.89243687 276.86616509 -187.9375 281.9375 C-187.94201172 282.90751953 -187.94652344 283.87753906 -187.95117188 284.87695312 C-187.9628685 287.2513676 -187.97925914 289.62565021 -188 292 C-196.07833533 284.13999805 -196.07833533 284.13999805 -197.28125 277.421875 C-197.48363281 276.34292969 -197.68601563 275.26398438 -197.89453125 274.15234375 C-198.09433594 273.02957031 -198.29414063 271.90679687 -198.5 270.75 C-200.59810155 256.28156104 -200.59810155 256.28156104 -209 245 C-219.87676281 238.75442256 -231.34244685 235.03949773 -243.421875 231.9296875 C-245.87091009 231.29336615 -248.30974171 230.61679448 -250.73828125 229.90625 C-256.87427776 228.20139828 -261.48476381 228.56832652 -267.01171875 231.60546875 C-272.72970503 235.61592278 -277.10574179 241.23569301 -279 248 C-279.44467345 251.67516988 -279.47552528 255.30120526 -279.4375 259 C-279.42722778 260.5303186 -279.42722778 260.5303186 -279.41674805 262.09155273 C-279.23659947 270.63680254 -277.82289825 277.90396508 -275 286 C-274.49146484 287.69576172 -274.49146484 287.69576172 -273.97265625 289.42578125 C-268.24038177 307.43858683 -256.14296298 327.83264012 -239 337 C-234.27916879 338.49268187 -229.46885198 339.03763344 -224.84375 337.09375 C-220.36285182 334.48546598 -217.21438502 331.7978342 -215 327 C-214.36155584 323.83578116 -214.24601941 321.150353 -215 318 C-217.61020386 315.05515462 -219.78247882 313.60770919 -223.26171875 311.87109375 C-230.1876688 308.4023948 -230.1876688 308.4023948 -231.9375 303.75 C-232.6793826 301.64573011 -232.6793826 301.64573011 -234 300 C-236.63301882 299.25645648 -238.92904653 299.12459864 -241.66015625 299.1328125 C-244 299 -244 299 -247 297 C-246.5153125 296.67128906 -246.030625 296.34257812 -245.53125 296.00390625 C-234.99424419 288.52668482 -229.1652251 280.67466225 -226 268 C-225.41188074 263.99288895 -225.08155476 260.04808153 -225 256 C-220.75390549 261.16915854 -220.85978836 265.68085379 -220.82421875 272.203125 C-220.80101334 273.83985651 -220.77689571 275.47657529 -220.75195312 277.11328125 C-220.71693318 279.67830858 -220.68753743 282.24286878 -220.67407227 284.80810547 C-220.65848726 287.29451354 -220.61821143 289.77957749 -220.57421875 292.265625 C-220.57708138 293.398862 -220.57708138 293.398862 -220.58000183 294.55499268 C-220.39580044 302.6783023 -216.98522156 308.43005522 -211.4375 314.25 C-203.67584462 322.4697632 -203.67584462 322.4697632 -203.1875 328.4375 C-203.09855469 329.36433594 -203.00960937 330.29117187 -202.91796875 331.24609375 C-203.03177093 335.06659547 -203.80962515 337.81262357 -206.55078125 340.546875 C-207.42283203 341.14242187 -207.42283203 341.14242187 -208.3125 341.75 C-209.17294922 342.36101562 -209.17294922 342.36101562 -210.05078125 342.984375 C-215.2969666 345.71785835 -220.9849082 345.03736342 -226.73632812 344.78515625 C-228.9246591 344.70463013 -228.9246591 344.70463013 -232 345 C-234.49959836 348.74939753 -234.32498801 350.54766425 -234 355 C-233.01902303 358.49933319 -233.01902303 358.49933319 -231.625 361.9375 C-229.95200426 366.27652696 -228.57357546 370.50658194 -227.50048828 375.01928711 C-226.70505863 378.16724845 -225.63127371 381.22638032 -224.625 384.3125 C-217.74894587 407.17955703 -217.42319788 430.36664246 -218 454 C-176.94903153 473.0598728 -127.89161964 479.58301293 -83.24462891 471.41015625 C-81.11879675 471.02170748 -78.9905867 470.6767359 -76.85546875 470.34375 C-19.38911173 460.71827844 37.57903633 427.56331979 73 381 C73.50853516 380.34612305 74.01707031 379.69224609 74.54101562 379.01855469 C103.32614326 341.91661682 119.71376891 299.32948046 126 253 C126.1038501 252.29552734 126.2077002 251.59105469 126.31469727 250.86523438 C127.35229892 243.0425958 127.28744862 235.12814448 127.3125 227.25 C127.31511841 226.46120453 127.31773682 225.67240906 127.32043457 224.85971069 C127.32592058 209.31332663 125.81290934 194.31022755 123 179 C122.7836792 177.78787842 122.7836792 177.78787842 122.56298828 176.55126953 C114.56908847 133.442348 92.44417194 91.5738436 62.515625 59.703125 C60.45958509 57.49383988 58.49899728 55.25001617 56.5625 52.9375 C29.30768683 21.67842518 -10.29981818 1.73105076 -49 -11 C-50.58167969 -11.5259375 -50.58167969 -11.5259375 -52.1953125 -12.0625 C-59.65691708 -14.45021346 -67.10746134 -16.3104779 -74.83251953 -17.62792969 C-76.30165865 -17.88012253 -77.76880107 -18.14418171 -79.23388672 -18.41894531 C-146.42764521 -30.75752977 -221.92239878 -12.3068671 -274.42773438 31.68798828 Z " fill="#1C2320" transform="translate(377,30)"/>
<path d="M0 0 C2.16023549 0.48005233 3.99897706 0.99948147 5.98046875 2.00390625 C10.4740681 3.48627085 14.92068096 3.43111234 19.625 3.5625 C21.51314671 3.62246142 23.40118116 3.68610206 25.2890625 3.75390625 C26.53743896 3.78979858 26.53743896 3.78979858 27.81103516 3.82641602 C30 4 30 4 33 5 C41.20193372 5.83375569 41.20193372 5.83375569 48.6875 3.0625 C50.3732151 1.56244689 50.3732151 1.56244689 52 0 C58.32107023 -0.46822742 58.32107023 -0.46822742 60.8125 1.25 C68.92694075 13.20812321 67.45171347 31.54880083 67.33618164 45.35205078 C67.31236276 48.39251877 67.31567803 51.43211696 67.32226562 54.47265625 C67.31012597 64.18235254 67.09096065 73.48304851 65 83 C64.71933909 84.4186982 64.44186319 85.83802844 64.16674805 87.2578125 C63.38025873 91.28889498 62.55212832 95.30994325 61.70581055 99.32885742 C61.35870113 100.99213772 61.0185886 102.65689276 60.68530273 104.32299805 C60.19579479 106.7671899 59.68427146 109.20587657 59.16796875 111.64453125 C58.9536042 112.74786552 58.9536042 112.74786552 58.73490906 113.87348938 C57.32827275 120.30892788 54.53825769 125.09899177 49.23046875 129.07421875 C38.82731208 134.58962787 28.53467729 137.13872463 16.9375 139 C11.40315197 139.9570677 6.89273276 141.47941158 3.38671875 146.1484375 C1.68663758 149.64437907 1.21056252 152.99621258 0.8125 156.8125 C0.6897168 157.85180664 0.6897168 157.85180664 0.56445312 158.91210938 C0.36575707 160.60686984 0.18140797 162.30330194 0 164 C-4.58497564 163.4479628 -4.58497564 163.4479628 -6.4765625 161.40625 C-6.85554687 160.7771875 -7.23453125 160.148125 -7.625 159.5 C-9.50296468 156.36876452 -9.50296468 156.36876452 -13 155 C-13.03738281 155.60328125 -13.07476562 156.2065625 -13.11328125 156.828125 C-13.21189453 158.02695312 -13.21189453 158.02695312 -13.3125 159.25 C-13.37050781 160.03890625 -13.42851562 160.8278125 -13.48828125 161.640625 C-14.13230483 164.61001617 -14.80983502 165.86901372 -17 168 C-19.62559944 168.38252748 -21.82703044 168.51453164 -24.44921875 168.4609375 C-25.18066605 168.46002106 -25.91211334 168.45910461 -26.66572571 168.4581604 C-28.21496051 168.45211978 -29.76418337 168.43635961 -31.31323242 168.41162109 C-33.66174375 168.37539727 -36.00866189 168.37059995 -38.35742188 168.37109375 C-39.86720089 168.36125048 -41.37696936 168.34958824 -42.88671875 168.3359375 C-43.5797258 168.33371185 -44.27273285 168.33148621 -44.98674011 168.32919312 C-49.95817059 168.23457459 -54.24612092 167.33242854 -59 166 C-59.72299079 163.42504051 -59.98622262 161.66245419 -59.875 158.9375 C-59.72845138 156.0242612 -59.72845138 156.0242612 -61.3125 154.1875 C-64.56580058 151.89814033 -67.529861 151.86899709 -71.375 151.82421875 C-72.44363281 151.80037109 -73.51226562 151.77652344 -74.61328125 151.75195312 C-76.83965989 151.7095826 -79.06627509 151.67801357 -81.29296875 151.65820312 C-92.94373628 151.35893012 -101.88293365 148.53511268 -110 140 C-111.13571334 138.71774301 -112.26068608 137.42589672 -113.375 136.125 C-124.77063721 122.83860684 -139.56016811 113.86311843 -155 106 C-151 102 -151 102 -147 98 C-147.33 98 -147.66 98 -148 98 C-151.66666667 98 -155.33333333 98 -159 98 C-156.3273611 85.59287144 -156.3273611 85.59287144 -151 82 C-147.68064069 81.45806379 -145.7869522 81.68096532 -142.6875 82.9375 C-140.01842025 86.19970859 -140.17211116 89.89514876 -140 94 C-139.28714844 93.91878906 -138.57429688 93.83757812 -137.83984375 93.75390625 C-130.08570726 93.24252982 -130.08570726 93.24252982 -126.81640625 95.5234375 C-125 97.4375 -125 97.4375 -123.4375 99.37109375 C-121.99476532 101.28067096 -121.99476532 101.28067096 -119 102 C-116.85501219 102.10282232 -114.70890539 102.18299961 -112.5625 102.25 C-106.20884526 102.64220091 -101.58727361 104.20829504 -95.8671875 106.87109375 C-92.11906924 108.34685149 -88.71742453 108.49601041 -84.73046875 108.703125 C-78.50330795 109.38018397 -72.60097281 111.93591576 -67.25 115.125 C-60.38595942 119.08502341 -53.76391941 119.53160595 -46 119 C-45.01 118.67 -44.02 118.34 -43 118 C-42.98582031 117.38511719 -42.97164063 116.77023437 -42.95703125 116.13671875 C-42.81142431 113.66927144 -42.59189998 111.4016661 -42 109 C-39.12855653 106.50637804 -37.7938847 106 -34 106 C-34.495 105.505 -34.99 105.01 -35.5 104.5 C-37.57385049 101.04358252 -37.95353261 97.86795891 -37 94 C-33.73697855 90.50932589 -30.53573824 88.46744472 -26 87 C-25.69426296 82.35383429 -25.69426296 82.35383429 -27 78 C-28.83772669 74.32454663 -28.4981155 70.79856469 -27.41796875 66.8984375 C-24.89740806 60.38411169 -20.77475119 53.97766065 -15 50 C-11.05714317 48.92135651 -7.05158841 48.49490174 -3 48 C-1.5529366 47.79786512 -0.10634195 47.59235488 1.33984375 47.3840332 C5.38410679 46.80395744 9.43164727 46.2528637 13.48144531 45.71289062 C15.16095735 45.4875664 16.8400009 45.25872225 18.51855469 45.02636719 C44.49452383 41.43125255 44.49452383 41.43125255 52 46 C53.32 46 54.64 46 56 46 C56 43.69 56 41.38 56 39 C46.95068485 32.26562593 35.570021 34.71422617 25 36.22265625 C19.02295268 37.28034158 13.26083557 39.14525211 7.484375 40.9765625 C4 42 4 42 1 42 C1.1875 40.13671875 1.1875 40.13671875 2 38 C4.25 36.76953125 4.25 36.76953125 7 35.8125 C10.2610197 34.8395483 10.2610197 34.8395483 13 33 C13.33338596 29.54187831 13.33338596 29.54187831 13 26 C12.01 25.34 11.02 24.68 10 24 C9.70703125 21.8359375 9.70703125 21.8359375 9.8125 19.375 C9.85310547 18.14910156 9.85310547 18.14910156 9.89453125 16.8984375 C9.92933594 16.27195312 9.96414063 15.64546875 10 15 C9.31292969 14.95101563 8.62585938 14.90203125 7.91796875 14.8515625 C7.01691406 14.77679688 6.11585938 14.70203125 5.1875 14.625 C4.29417969 14.55539062 3.40085937 14.48578125 2.48046875 14.4140625 C0 14 0 14 -3 12 C-3.66666667 5.11111111 -3.66666667 5.11111111 -1.5 1.5 C-0.7575 0.7575 -0.7575 0.7575 0 0 Z " fill="#1F2522" transform="translate(351,316)"/>
<path d="M0 0 C4.55014409 1.34971891 9.62384948 2.09041901 14.015625 -0.10546875 C16.01522512 -0.14546075 18.01609742 -0.14893674 20.015625 -0.10546875 C20.510625 2.36953125 20.510625 2.36953125 21.015625 4.89453125 C20.10039062 5.6421875 19.18515625 6.38984375 18.2421875 7.16015625 C17.04136678 8.15458591 15.84086244 9.14939768 14.640625 10.14453125 C14.03734375 10.63566406 13.4340625 11.12679687 12.8125 11.6328125 C8.61268895 15.13265504 6.25546773 17.44813542 5.703125 23.08203125 C6.02762898 27.04097981 7.0157687 30.1108453 8.33203125 33.8203125 C9.17450844 36.376629 9.54721147 38.23659892 9.015625 40.89453125 C6.7678396 43.68488554 5.43832484 44.7536313 2.015625 45.89453125 C0.39060514 45.91930289 -1.23564288 45.88566782 -2.859375 45.81640625 C-13.99954895 45.48548269 -23.98097934 45.66582526 -34.65429688 49.11621094 C-43.52218531 51.95474509 -51.36248702 51.41730583 -59.984375 47.89453125 C-61.43377019 46.99679096 -62.87153427 46.07999254 -64.296875 45.14453125 C-68.24809495 42.77518083 -70.53847095 42.86579465 -75.046875 43.58203125 C-84.01284324 44.72908587 -90.52047514 40.31044506 -97.984375 35.89453125 C-98.90605469 35.37375 -99.82773438 34.85296875 -100.77734375 34.31640625 C-102.984375 33.01953125 -102.984375 33.01953125 -105.984375 30.89453125 C-105.984375 30.23453125 -105.984375 29.57453125 -105.984375 28.89453125 C-103.94614488 27.48895821 -101.92660594 26.20913844 -99.796875 24.95703125 C-99.21873047 24.60962891 -98.64058594 24.26222656 -98.04492188 23.90429688 C-96.36196657 22.89452369 -94.67324092 21.8943874 -92.984375 20.89453125 C-91.75267578 20.11916016 -91.75267578 20.11916016 -90.49609375 19.328125 C-87.42091342 17.57292876 -84.25356804 16.25320229 -80.984375 14.89453125 C-79.7984375 14.36214844 -78.6125 13.82976562 -77.390625 13.28125 C-62.30548181 6.64037046 -46.373968 2.24447458 -29.99609375 0.328125 C-26.90386577 -0.11705957 -24.0429507 -0.85307546 -21.046875 -1.73046875 C-12.95313754 -4.02447864 -7.78479306 -2.76770909 0 0 Z " fill="#202724" transform="translate(345.984375,231.10546875)"/>
<path d="M0 0 C0.85311768 -0.01853027 1.70623535 -0.03706055 2.58520508 -0.05615234 C9.20133174 0.0106706 14.11136742 1.59838104 19.27441406 5.78759766 C22.68183654 9.26867455 23.30165562 12.33208669 23.33081055 16.97216797 C23.30414307 17.76510254 23.27747559 18.55803711 23.25 19.375 C23.22836792 20.61660889 23.22836792 20.61660889 23.20629883 21.88330078 C22.88698595 31.03577031 21.72578964 43.2814992 15.6875 50.5 C13.05078125 50.8125 13.05078125 50.8125 10 50.5 C4.49976913 50.24969009 2.14211769 51.03403673 -2.171875 54.26953125 C-5.72175717 56.31006571 -9.55441388 56.46717579 -13.578125 56.84765625 C-19.0974813 58.16441697 -21.37238711 62.99182691 -24.3125 67.5 C-26.3125 69.5 -26.3125 69.5 -28.2644043 69.65112305 C-29.04726807 69.60511963 -29.83013184 69.55911621 -30.63671875 69.51171875 C-31.50103516 69.46466797 -32.36535156 69.41761719 -33.25585938 69.36914062 C-34.16142578 69.30919922 -35.06699219 69.24925781 -36 69.1875 C-36.88623047 69.13916016 -37.77246094 69.09082031 -38.68554688 69.04101562 C-52.58421163 68.22828837 -52.58421163 68.22828837 -55.3125 65.5 C-55.3125 64.51 -55.3125 63.52 -55.3125 62.5 C-52.6725 61.84 -50.0325 61.18 -47.3125 60.5 C-50.50918988 57.8513141 -53.70736597 55.56007659 -57.3125 53.5 C-56.56017802 46.97987616 -56.56017802 46.97987616 -55.3125 44.5625 C-54.17717313 42.22088832 -53.91541111 40.33299259 -53.6875 37.75 C-53.61273438 36.95078125 -53.53796875 36.1515625 -53.4609375 35.328125 C-53.41195313 34.72484375 -53.36296875 34.1215625 -53.3125 33.5 C-51.0025 33.5 -48.6925 33.5 -46.3125 33.5 C-46.82941406 32.57058594 -47.34632813 31.64117187 -47.87890625 30.68359375 C-48.54523101 29.43540793 -49.2105422 28.18668067 -49.875 26.9375 C-50.38836914 26.02387695 -50.38836914 26.02387695 -50.91210938 25.09179688 C-53.28414368 20.56336775 -53.67128169 17.61281111 -52.3125 12.5 C-41.51977908 1.70727908 -14.39471093 0.19133422 0 0 Z " fill="#DEE1E0" transform="translate(386.3125,371.5)"/>
<path d="M0 0 C3.58687772 1.5102643 6.60629391 3.46258782 8.375 7 C8.84159341 10.39946628 9.04069393 12.90763647 7.2109375 15.91015625 C1.96039199 22.25119967 -3.77127746 25.27306714 -12.015625 26.296875 C-20.2542184 26.75176666 -24.60722511 23.64055303 -30.625 18.375 C-32.625 16 -32.625 16 -32.625 13 C-30.01618475 11.69559238 -27.97793772 11.92712788 -25.0625 11.875 C-18.05564273 11.3637341 -14.72601661 8.51130371 -9.625 4 C-6.54157985 1.78865827 -3.90970496 0 0 0 Z " fill="#202724" transform="translate(393.625,384)"/>
<path d="M0 0 C1.20914063 0.42796875 2.41828125 0.8559375 3.6640625 1.296875 C4.88867188 1.71453125 6.11328125 2.1321875 7.375 2.5625 C10.2890625 4.046875 10.2890625 4.046875 11.265625 6.15625 C11.27722656 7.09210938 11.27722656 7.09210938 11.2890625 8.046875 C9.62782488 9.70811262 7.59921825 9.17966099 5.37646484 9.23583984 C-3.89893578 9.50705039 -11.8999729 11.64357784 -20.69433594 14.43017578 C-43.18719952 21.30874399 -43.18719952 21.30874399 -51.7109375 17.046875 C-51.2159375 15.561875 -51.2159375 15.561875 -50.7109375 14.046875 C-48.22675306 12.89894862 -45.84709375 11.94348307 -43.2734375 11.046875 C-42.17854004 10.65060913 -42.17854004 10.65060913 -41.06152344 10.24633789 C-36.47291929 8.60457636 -31.85193592 7.16345108 -27.1640625 5.83203125 C-4.96129342 -1.27426905 -4.96129342 -1.27426905 0 0 Z " fill="#D9DCDB" transform="translate(311.7109375,241.953125)"/>
<path d="M0 0 C8.6079423 4.43997355 8.6079423 4.43997355 11.66796875 7.5 C11.91796875 10.5 11.91796875 10.5 11.66796875 13.5 C11.00796875 14.16 10.34796875 14.82 9.66796875 15.5 C4.92180312 15.5 2.45340303 14.5741372 -0.89453125 11.375 C-3.69102846 8.71134922 -3.69102846 8.71134922 -7.64453125 8.4375 C-10.6236961 9.3201775 -10.6236961 9.3201775 -12.33203125 12.5 C-12.6308731 14.03294803 -12.87561724 15.57689491 -13.08203125 17.125 C-14.11777493 22.76773158 -16.50347489 27.22331745 -20.33203125 31.5 C-21.81703125 31.995 -21.81703125 31.995 -23.33203125 32.5 C-25.51341222 28.13723806 -24.44211114 22.28297115 -24.33203125 17.5 C-24.326875 16.63761719 -24.32171875 15.77523438 -24.31640625 14.88671875 C-24.06497926 9.68756775 -22.64867917 6.67675239 -19 2.94140625 C-13.01244166 -2.23285377 -7.09836412 -3.1955121 0 0 Z " fill="#232A27" transform="translate(128.33203125,269.5)"/>
<path d="M0 0 C2.5625 1.6875 2.5625 1.6875 4 4 C4.01171875 6.32421875 4.01171875 6.32421875 3 9 C0.76963891 10.92091309 -1.31624788 12.51399405 -3.75 14.125 C-4.37132812 14.55425781 -4.99265625 14.98351562 -5.6328125 15.42578125 C-16.02694726 22.55256142 -16.02694726 22.55256142 -21 22 C-22 21 -22 21 -22.5 17.9375 C-21.7861006 12.3155422 -18.96042601 9.84394289 -15 6 C-14.42507812 5.39285156 -13.85015625 4.78570312 -13.2578125 4.16015625 C-8.91093188 -0.09658169 -6.0477568 -0.99143554 0 0 Z " fill="#212825" transform="translate(142,297)"/>
<path d="M0 0 C0.82693359 0.00451172 1.65386719 0.00902344 2.50585938 0.01367188 C4.52477146 0.02534189 6.54364574 0.04327282 8.5625 0.0625 C8.5625 1.0525 8.5625 2.0425 8.5625 3.0625 C-13.24508936 10.69515627 -13.24508936 10.69515627 -21.4375 8.0625 C-24 6 -24 6 -25.4375 4.0625 C-24.08620353 3.57529787 -22.73125684 3.09821816 -21.375 2.625 C-20.24384766 2.22474609 -20.24384766 2.22474609 -19.08984375 1.81640625 C-12.7567915 0.01628978 -6.52213811 -0.06832216 0 0 Z " fill="#C3C7C6" transform="translate(316.4375,264.9375)"/>
<path d="M0 0 C3.14067245 3.14067245 2.97821454 6.20788056 3.09765625 10.55078125 C3.08605469 11.79214844 3.07445312 13.03351563 3.0625 14.3125 C3.05347656 15.56675781 3.04445313 16.82101562 3.03515625 18.11328125 C3.02355469 19.06589844 3.01195312 20.01851563 3 21 C-0.79472973 20.45550236 -2.27031268 18.96207612 -4.6875 16.0625 C-5.28949219 15.35222656 -5.89148438 14.64195312 -6.51171875 13.91015625 C-9.14080743 10.53581408 -9.4266041 8.26604104 -9 4 C-6.40769545 0.35157137 -4.45129621 -0.70283624 0 0 Z " fill="#DBDEDD" transform="translate(407,329)"/>
<path d="M0 0 C2.52110926 -0.00751051 5.04221105 -0.01819437 7.56329346 -0.03204346 C11.14082578 -0.04988189 14.71811323 -0.05407087 18.29568481 -0.05422974 C19.38499802 -0.06136993 20.47431122 -0.06851013 21.59663391 -0.0758667 C22.59850235 -0.07283539 23.60037079 -0.06980408 24.63259888 -0.06668091 C25.50950378 -0.06810593 26.38640869 -0.06953094 27.28988647 -0.07099915 C29.53005981 0.17623901 29.53005981 0.17623901 32.53005981 2.17623901 C16.69005981 2.17623901 0.85005981 2.17623901 -15.46994019 2.17623901 C-13.48994019 3.49623901 -11.50994019 4.81623901 -9.46994019 6.17623901 C-9.79994019 7.16623901 -10.12994019 8.15623901 -10.46994019 9.17623901 C-17.88635356 9.54098066 -17.88635356 9.54098066 -20.46994019 7.92623901 C-21.46994019 6.17623901 -21.46994019 6.17623901 -21.46994019 2.17623901 C-42.25994019 2.67123901 -42.25994019 2.67123901 -63.46994019 3.17623901 C-63.79994019 4.49623901 -64.12994019 5.81623901 -64.46994019 7.17623901 C-64.79994019 6.51623901 -65.12994019 5.85623901 -65.46994019 5.17623901 C-65.13994019 4.18623901 -64.80994019 3.19623901 -64.46994019 2.17623901 C-43.3402018 -0.87897225 -21.29820084 0.05893686 0 0 Z " fill="#6C716F" transform="translate(297.4699401855469,28.823760986328125)"/>
<path d="M0 0 C6.24076721 -0.54022145 9.55540314 0.93656949 14.625 4.1875 C15.26695312 4.57486328 15.90890625 4.96222656 16.5703125 5.36132812 C20.53957871 7.82178515 23.94057439 10.41894818 27 14 C27 14.99 27 15.98 27 17 C21.54578879 16.53170914 18.08502355 15.21023365 13.5 12.25 C12.93901611 11.88946533 12.37803223 11.52893066 11.80004883 11.1574707 C10.19198628 10.11731561 8.59565137 9.05909608 7 8 C6.20980469 7.49339844 5.41960937 6.98679687 4.60546875 6.46484375 C2.6875 5.1875 2.6875 5.1875 0 3 C0 2.01 0 1.02 0 0 Z " fill="#D1D4D3" transform="translate(281,47)"/>
<path d="M0 0 C6.11262957 -0.78033569 8.89887919 0.93513119 13.81640625 4.484375 C16.70523227 6.48949932 19.74429619 7.68629495 23 9 C24.80088646 9.81321698 26.59222581 10.64780865 28.375 11.5 C29.65503906 12.10328125 29.65503906 12.10328125 30.9609375 12.71875 C33 14 33 14 34 17 C26.54357733 15.82267011 20.27739445 12.93727259 13.546875 9.6796875 C10.77626042 8.36761231 8.07170868 7.20855198 5.1875 6.1875 C2 5 2 5 0 3 C0 2.01 0 1.02 0 0 Z " fill="#CACDCC" transform="translate(325,41)"/>
<path d="M0 0 C-1.58413025 3.80903229 -3.9974016 6.32970727 -6.875 9.25 C-7.73867188 10.14203125 -8.60234375 11.0340625 -9.4921875 11.953125 C-12 14 -12 14 -16 14 C-16.33 11.69 -16.66 9.38 -17 7 C-15.54261898 6.01941648 -14.08406325 5.04057868 -12.625 4.0625 C-11.81289063 3.51722656 -11.00078125 2.97195313 -10.1640625 2.41015625 C-6.52506833 0.03889831 -4.34292969 -0.09441152 0 0 Z " fill="#2C3330" transform="translate(366,292)"/>
<path d="M0 0 C3.96813207 1.39420857 6.99128126 3.23917052 10.3125 5.8125 C11.19550781 6.47894531 12.07851562 7.14539063 12.98828125 7.83203125 C15 10 15 10 15.35546875 12.69921875 C15 15 15 15 14 16 C11.73828125 16.421875 11.73828125 16.421875 9 16 C7.11295229 14.09195176 5.70244177 12.41780352 4.1875 10.25 C3.57745117 9.44175781 3.57745117 9.44175781 2.95507812 8.6171875 C0.60802011 5.38258654 0 4.1235781 0 0 Z " fill="#2C3330" transform="translate(114,325)"/>
<path d="M0 0 C7.35521031 0.31298767 12.83966442 3.83966442 18 9 C18 9.99 18 10.98 18 12 C11.27012883 11.6548784 6.13436354 7.78148817 1.23046875 3.4296875 C0 2 0 2 0 0 Z " fill="#CFD3D2" transform="translate(307,47)"/>
<path d="M0 0 C3.02568119 1.28362232 3.77935013 2.90349505 5.0625 5.875 C5.0625 8.5 5.0625 8.5 4.0625 10.875 C1.5 12.6875 1.5 12.6875 -0.9375 13.875 C-1.63930531 12.4653653 -2.32343958 11.04692359 -3 9.625 C-3.38285156 8.83609375 -3.76570312 8.0471875 -4.16015625 7.234375 C-5.03007635 4.59401449 -5.01107416 3.41560482 -3.9375 0.875 C-1.9375 -0.125 -1.9375 -0.125 0 0 Z " fill="#29302D" transform="translate(199.9375,312.125)"/>
<path d="M0 0 C4.23910579 1.51396635 5.93638856 4.09387835 8 8 C8.25 11.875 8.25 11.875 8 15 C3.32307692 13.52307692 3.32307692 13.52307692 1.6875 10.875 C1.460625 10.25625 1.23375 9.6375 1 9 C0.34 9 -0.32 9 -1 9 C-1.09765625 2.84765625 -1.09765625 2.84765625 -1 1 C-0.67 0.67 -0.34 0.34 0 0 Z " fill="#363C3A" transform="translate(164,321)"/>
<path d="M0 0 C7.38461538 -0.36923077 7.38461538 -0.36923077 10.5 1.5 C10.995 1.995 11.49 2.49 12 3 C11.67 3.99 11.34 4.98 11 6 C3.5577342 6.36601307 3.5577342 6.36601307 1 4.6875 C0 3 0 3 0 0 Z " fill="#CACDCC" transform="translate(276,32)"/>
<path d="M0 0 C0 0.99 0 1.98 0 3 C-0.33 3.33 -0.66 3.66 -1 4 C-0.34 4.66 0.32 5.32 1 6 C-0.60256108 6.50512244 -2.20711792 7.00391627 -3.8125 7.5 C-5.15248047 7.91765625 -5.15248047 7.91765625 -6.51953125 8.34375 C-9 9 -9 9 -12 9 C-11.8125 7.13671875 -11.8125 7.13671875 -11 5 C-8.75 3.76953125 -8.75 3.76953125 -6 2.8125 C-2.7389803 1.8395483 -2.7389803 1.8395483 0 0 Z " fill="#3B413F" transform="translate(364,349)"/>
<path d="M0 0 C4.875 0.875 4.875 0.875 6 2 C6.04063832 3.66617115 6.042721 5.33388095 6 7 C2.62537285 6.45276317 0.91765 5.9451 -2 4 C-1.34 2.68 -0.68 1.36 0 0 Z " fill="#3C4240" transform="translate(185,402)"/>
<path d="M0 0 C3.78695173 0.5409931 5.62745972 2.03432464 8 5 C8 6.32 8 7.64 8 9 C6.25 8.875 6.25 8.875 4 8 C0 2.77777778 0 2.77777778 0 0 Z " fill="#CCCFCE" transform="translate(259,37)"/>
<path d="M0 0 C0.886875 -0.00257813 1.77375 -0.00515625 2.6875 -0.0078125 C5 0.125 5 0.125 7 1.125 C7 1.785 7 2.445 7 3.125 C5.41705218 3.17937607 3.83355744 3.21796271 2.25 3.25 C1.36828125 3.27320313 0.4865625 3.29640625 -0.421875 3.3203125 C-3.1135858 3.11639502 -4.69904974 2.49051721 -7 1.125 C-4.51245214 -0.11877393 -2.77344699 -0.00806235 0 0 Z " fill="#2A312E" transform="translate(375,381.875)"/>
<path d="M0 0 C1.32 0.33 2.64 0.66 4 1 C4 3.64 4 6.28 4 9 C2.68 8.67 1.36 8.34 0 8 C0 5.36 0 2.72 0 0 Z " fill="#3B413E" transform="translate(190,348)"/>
<path d="M0 0 C0 0.66 0 1.32 0 2 C-3.67452438 4.8394052 -5.26886581 6 -10 6 C-7.82304683 0.97626191 -5.41372848 -0.29263397 0 0 Z " fill="#39403D" transform="translate(329,284)"/>
<path d="M0 0 C0 0.66 0 1.32 0 2 C-6.5 5 -6.5 5 -11 5 C-11 4.01 -11 3.02 -11 2 C-7.17679443 0.57741188 -4.08718695 -0.24042276 0 0 Z " fill="#C2C6C4" transform="translate(326,476)"/>
<path d="M0 0 C2.73058469 1.04404709 4.1850125 2.66465669 6.125 4.8125 C3.485 4.8125 0.845 4.8125 -1.875 4.8125 C-2.535 3.4925 -3.195 2.1725 -3.875 0.8125 C-1.875 -0.1875 -1.875 -0.1875 0 0 Z " fill="#CCCFCE" transform="translate(259.875,430.1875)"/>
<path d="M0 0 C4.1666604 0.47348414 6.92884715 1.04696841 10 4 C10 4.66 10 5.32 10 6 C5.87248551 5.39301257 2.6678852 3.96189209 -1 2 C-0.67 1.34 -0.34 0.68 0 0 Z " fill="#D5D8D7" transform="translate(349,52)"/>
<path d="M0 0 C1.32 0.33 2.64 0.66 4 1 C3.25 6.75 3.25 6.75 1 9 C0 8 0 8 -0.09765625 6.15234375 C-0.06510417 4.1015625 -0.03255208 2.05078125 0 0 Z " fill="#C6CAC9" transform="translate(244,61)"/>
<path d="M0 0 C2.46800047 1.15173355 4.04783565 2.04783565 6 4 C6 4.99 6 5.98 6 7 C3.13275314 6.42655063 2.1385485 6.1385485 0 4 C0 2.68 0 1.36 0 0 Z " fill="#C3C6C5" transform="translate(278,58)"/>
<path d="M0 0 C0.66 0.33 1.32 0.66 2 1 C1.030625 1.86625 0.06125 2.7325 -0.9375 3.625 C-3.91504038 6.56751049 -4.79692286 8.73538008 -5 13 C-5.33 13 -5.66 13 -6 13 C-6.7230444 5.89006342 -6.7230444 5.89006342 -4.6640625 3.35546875 C-3 2 -3 2 0 0 Z " fill="#555B58" transform="translate(320,405)"/>
<path d="M0 0 C1.65 0 3.3 0 5 0 C5.66 1.32 6.32 2.64 7 4 C5.02 4 3.04 4 1 4 C0.67 2.68 0.34 1.36 0 0 Z " fill="#2D3431" transform="translate(355,255)"/>
<path d="M0 0 C0.66 0 1.32 0 2 0 C1.5359375 0.7425 1.5359375 0.7425 1.0625 1.5 C-0.41644382 4.97986781 -0.62402851 8.24028509 -1 12 C-3 9 -3 9 -2.75 5.4375 C-2 2 -2 2 0 0 Z " fill="#A6AAA8" transform="translate(336,382)"/>
<path d="M0 0 C0 3 0 3 -1.2421875 4.60546875 C-1.78101563 5.12753906 -2.31984375 5.64960938 -2.875 6.1875 C-3.40867187 6.71730469 -3.94234375 7.24710938 -4.4921875 7.79296875 C-6 9 -6 9 -8 9 C-6.4169423 4.7257442 -3.49431596 2.73468206 0 0 Z " fill="#C1C5C4" transform="translate(361,240)"/>
<path d="M0 0 C2.97 0.495 2.97 0.495 6 1 C5.67 1.66 5.34 2.32 5 3 C5.99 3.99 6.98 4.98 8 6 C5.69 5.34 3.38 4.68 1 4 C0.67 2.68 0.34 1.36 0 0 Z " fill="#C3C6C5" transform="translate(344,50)"/>
<path d="M0 0 C1.98 0 3.96 0 6 0 C5.67 1.32 5.34 2.64 5 4 C3.35 4 1.7 4 0 4 C0 2.68 0 1.36 0 0 Z " fill="#ABB0AE" transform="translate(392,246)"/>
<path d="M0 0 C1.32 0.33 2.64 0.66 4 1 C2.02 3.31 0.04 5.62 -2 8 C-2.33 7.01 -2.66 6.02 -3 5 C-1.5625 2.3125 -1.5625 2.3125 0 0 Z " fill="#BCC0BE" transform="translate(202,62)"/>
<path d="M0 0 C2.31 0 4.62 0 7 0 C7 0.99 7 1.98 7 3 C5.02 3 3.04 3 1 3 C0.67 2.01 0.34 1.02 0 0 Z " fill="#B0B4B3" transform="translate(371,331)"/>
<path d="M0 0 C0.86625 0.3403125 0.86625 0.3403125 1.75 0.6875 C1.0075 1.079375 0.265 1.47125 -0.5 1.875 C-3.44783071 3.81788842 -5.18098611 5.85218467 -7.25 8.6875 C-6.76566469 3.23872777 -6.76566469 3.23872777 -4.4375 0.75 C-2.25 -0.3125 -2.25 -0.3125 0 0 Z " fill="#ADB1B0" transform="translate(122.25,277.3125)"/>
<path d="M0 0 C0.66 0.33 1.32 0.66 2 1 C-0.31 3.31 -2.62 5.62 -5 8 C-5 5 -5 5 -2.5 2.3125 C-1.675 1.549375 -0.85 0.78625 0 0 Z " fill="#C1C4C3" transform="translate(359,457)"/>
<path d="M0 0 C0.8971875 0.309375 0.8971875 0.309375 1.8125 0.625 C0.69875 1.2746875 0.69875 1.2746875 -0.4375 1.9375 C-2.80583926 3.39079909 -4.99674065 4.92107606 -7.1875 6.625 C-4.6484375 -0.796875 -4.6484375 -0.796875 0 0 Z " fill="#404643" transform="translate(372.1875,428.375)"/>
<path d="M0 0 C0.598125 0.20625 1.19625 0.4125 1.8125 0.625 C1.8125 1.285 1.8125 1.945 1.8125 2.625 C-0.4975 2.955 -2.8075 3.285 -5.1875 3.625 C-5.1875 2.965 -5.1875 2.305 -5.1875 1.625 C-2.1875 -0.375 -2.1875 -0.375 0 0 Z " fill="#9FA3A2" transform="translate(169.1875,64.375)"/>
</svg>
