<svg xmlns="http://www.w3.org/2000/svg" version="1.1" xmlns:xlink="http://www.w3.org/1999/xlink" xmlns:svgjs="http://svgjs.dev/svgjs" viewBox="0 0 800 800" opacity="0.58"><defs><linearGradient x1="50%" y1="0%" x2="50%" y2="100%" id="gggyrate-grad"><stop stop-color="#1f2937" stop-opacity="1" offset="0%"></stop><stop stop-color="#374151" stop-opacity="1" offset="100%"></stop></linearGradient></defs><g stroke-width="1" stroke="url(#gggyrate-grad)" fill="none"><rect width="1075" height="1075" x="-137.5" y="-137.5" transform="rotate(0, 400, 400)" opacity="0.05"></rect><rect width="1032" height="1032" x="-116" y="-116" transform="rotate(0, 400, 400)" opacity="0.09"></rect><rect width="989" height="989" x="-94.5" y="-94.5" transform="rotate(0, 400, 400)" opacity="0.13"></rect><rect width="946" height="946" x="-73" y="-73" transform="rotate(0, 400, 400)" opacity="0.17"></rect><rect width="903" height="903" x="-51.5" y="-51.5" transform="rotate(0, 400, 400)" opacity="0.21"></rect><rect width="860" height="860" x="-30" y="-30" transform="rotate(0, 400, 400)" opacity="0.25"></rect><rect width="817" height="817" x="-8.5" y="-8.5" transform="rotate(0, 400, 400)" opacity="0.29"></rect><rect width="774" height="774" x="13" y="13" transform="rotate(0, 400, 400)" opacity="0.33"></rect><rect width="731" height="731" x="34.5" y="34.5" transform="rotate(0, 400, 400)" opacity="0.37"></rect><rect width="688" height="688" x="56" y="56" transform="rotate(0, 400, 400)" opacity="0.41"></rect><rect width="645" height="645" x="77.5" y="77.5" transform="rotate(0, 400, 400)" opacity="0.45"></rect><rect width="602" height="602" x="99" y="99" transform="rotate(0, 400, 400)" opacity="0.49"></rect><rect width="559" height="559" x="120.5" y="120.5" transform="rotate(0, 400, 400)" opacity="0.53"></rect><rect width="516" height="516" x="142" y="142" transform="rotate(0, 400, 400)" opacity="0.56"></rect><rect width="473" height="473" x="163.5" y="163.5" transform="rotate(0, 400, 400)" opacity="0.60"></rect><rect width="430" height="430" x="185" y="185" transform="rotate(0, 400, 400)" opacity="0.64"></rect><rect width="387" height="387" x="206.5" y="206.5" transform="rotate(0, 400, 400)" opacity="0.68"></rect><rect width="344" height="344" x="228" y="228" transform="rotate(0, 400, 400)" opacity="0.72"></rect><rect width="301" height="301" x="249.5" y="249.5" transform="rotate(0, 400, 400)" opacity="0.76"></rect><rect width="258" height="258" x="271" y="271" transform="rotate(0, 400, 400)" opacity="0.80"></rect><rect width="215" height="215" x="292.5" y="292.5" transform="rotate(0, 400, 400)" opacity="0.84"></rect><rect width="172" height="172" x="314" y="314" transform="rotate(0, 400, 400)" opacity="0.88"></rect><rect width="129" height="129" x="335.5" y="335.5" transform="rotate(0, 400, 400)" opacity="0.92"></rect><rect width="86" height="86" x="357" y="357" transform="rotate(0, 400, 400)" opacity="0.96"></rect><rect width="43" height="43" x="378.5" y="378.5" transform="rotate(0, 400, 400)" opacity="1.00"></rect></g></svg>