<?xml version="1.0" encoding="UTF-8" standalone="no"?>
<svg
   version="1.0"
   width="487.81198pt"
   height="487.81198pt"
   viewBox="0 0 487.81198 487.81198"
   preserveAspectRatio="xMidYMid"
   id="svg16"
   sodipodi:docname="faviconmain.svg"
   inkscape:export-filename="../../GitHub/sagar/musabbirs-terminal/public/avatar.svg"
   inkscape:export-xdpi="90.034691"
   inkscape:export-ydpi="90.034691"
   xml:space="preserve"
   xmlns:inkscape="http://www.inkscape.org/namespaces/inkscape"
   xmlns:sodipodi="http://sodipodi.sourceforge.net/DTD/sodipodi-0.dtd"
   xmlns:xlink="http://www.w3.org/1999/xlink"
   xmlns="http://www.w3.org/2000/svg"
   xmlns:svg="http://www.w3.org/2000/svg"><defs
     id="defs16"><linearGradient
       id="linearGradient1"
       inkscape:collect="always"><stop
         style="stop-color:#94a3b8;stop-opacity:1;"
         offset="0"
         id="stop1" /><stop
         style="stop-color:#374151;stop-opacity:1;"
         offset="1"
         id="stop2" /></linearGradient><linearGradient
       inkscape:collect="always"
       xlink:href="#linearGradient1"
       id="linearGradient2"
       x1="-181.94431"
       y1="-176.20065"
       x2="1004.3127"
       y2="1003.1573"
       gradientUnits="userSpaceOnUse" /></defs><sodipodi:namedview
     id="namedview16"
     pagecolor="#ffffff"
     bordercolor="#cccccc"
     borderopacity="1"
     inkscape:showpageshadow="0"
     inkscape:pageopacity="1"
     inkscape:pagecheckerboard="0"
     inkscape:deskcolor="#d1d1d1"
     inkscape:document-units="pt"
     showguides="true" /><g
     id="g1"
     transform="matrix(0.10911054,0,0,-0.10911054,-34.721417,520.54771)"><path
       id="circle1"
       style="fill:url(#linearGradient2);fill-opacity:1"
       d="M 399.99826,-199.99998 A 600,600 0 0 0 -200.00001,399.99828 600,600 0 0 0 143.28753,940.58264 C 236.69166,883.45239 128.16507,709.96117 119.24883,696.05883 85.862489,644.18163 71.994119,613.36042 45.028292,531.17876 10.871541,427.93811 1.111678,405.59636 -27.138268,366.04645 -46.39959,339.33743 -47.684161,332.40121 -38.438729,301.83994 c 4.622711,-14.63862 5.652943,-25.4261 5.909679,-57.78514 0.513652,-44.42942 3.336146,-58.29776 18.745217,-87.57497 C 13.181993,104.60266 67.114601,65.309353 159.31213,29.868545 207.85069,11.377673 251.51363,0.07826243 282.07492,-1.7194143 l 23.88376,-1.5422824 -9.24649,12.3274481 C 287.98038,20.36576 277.19583,38.856353 277.19583,42.451839 c 0,0.770459 3.59416,-2.567882 7.96005,-7.704204 11.04315,-12.584092 27.22084,-21.570757 42.37313,-23.36846 21.57267,-2.8250293 33.13176,-13.8697305 14.64087,-13.8697305 -11.29996,0 -28.25205,-7.1905243 -34.67253,-14.3814225 -2.56814,-2.825 -6.16395,-9.247683 -8.47534,-14.640871 -2.05456,-5.136329 -3.33608,-9.502333 -2.56567,-9.502333 0.77052,0 10.78465,5.395323 22.34148,11.815756 19.77495,11.299982 21.0604,11.5548 24.39905,7.18891 1.79768,-2.568194 3.3368,-6.418877 3.3368,-8.987038 0,-3.852272 4.36761,-4.622026 32.8744,-5.906076 63.69073,-3.338626 159.99771,-2.824351 175.14994,0.771141 22.59997,5.393135 43.40377,16.948905 66.26048,36.46704875 C 644.18893,20.109543 662.16542,42.452149 672.4381,64.28162 c 8.73181,19.004498 9.5046,51.87782 1.28644,69.34145 -6.42041,13.8681 -19.0078,27.22476 -30.56458,31.8474 -22.08631,9.24546 -19.51768,23.62832 17.97768,100.67356 58.04078,118.90655 59.8397,125.06903 51.10792,170.78254 -4.10905,21.5727 -3.8506,62.15112 0.5153,76.78981 1.79774,5.90679 1.53972,6.16469 -2.56927,2.56927 -5.90688,-4.62274 -40.06366,-56.24361 -48.53865,-73.19355 -13.61133,-27.22265 -10.7876,-46.7417 7.96005,-58.81213 11.5568,-7.19085 17.20644,-19.77528 14.38142,-31.33211 -2.56821,-10.27268 -66.77188,-138.93947 -74.47638,-149.21221 -10.27268,-13.61133 -13.35438,-14.38349 -42.88842,-10.01763 -14.38182,2.3114 -49.56496,6.42144 -78.32848,9.24649 -54.95901,5.39311 -66.25968,8.21971 -78.84378,20.54695 -6.16358,5.90679 -11.29971,8.21725 -23.88376,9.75818 -14.89541,2.05449 -26.19717,8.21878 -26.19717,14.12557 0,1.28412 5.13594,8.21844 11.5563,15.15257 11.55683,12.8408 19.26051,31.32981 19.26051,46.22522 0,6.16367 1.02792,7.19252 7.44836,7.19252 4.3659,0 8.22026,1.02578 8.99064,2.30982 2.82505,4.62272 -22.34533,23.37172 -50.85207,37.75348 -56.49988,28.76355 -72.67972,42.63163 -83.72287,72.42241 -4.87954,12.84094 -5.39438,19.77539 -5.39438,57.014 l 0.25945,42.37672 -5.90968,-7.44835 -5.90608,-7.19252 0.25945,27.48001 c 0,19.00447 -1.03007,27.99599 -3.08456,28.76645 -4.87955,1.79774 -15.666,-19.77624 -19.00467,-37.75348 -7.44769,-40.06354 -14.37936,-55.98598 -28.24755,-62.92008 -14.89536,-7.7045 -82.1844,-26.96832 -94.51164,-26.96832 -31.845368,0 -49.309564,31.07691 -43.659557,77.56095 8.731733,71.65213 59.326197,145.61496 99.646567,145.8718 15.66591,0 33.64194,-16.69255 33.64194,-31.58796 0,-6.42045 -10.52857,-17.2075 -23.11262,-23.62791 -9.24546,-4.62279 -13.35286,-8.47264 -15.66425,-14.89312 -2.56818,-7.19087 -4.36733,-8.47534 -11.04462,-8.47534 -4.36583,0 -11.29927,-1.02667 -15.40841,-2.05398 l -7.19251,-1.79812 11.81576,-7.70421 c 21.31588,-14.38181 35.44115,-41.35148 38.00933,-74.22414 l 0.76754,-8.98703 5.13854,8.98703 c 4.36586,7.7046 5.13754,14.12533 5.39438,47.51167 0.25684,43.91577 1.28157,47.77003 18.74522,68.05861 15.66584,18.234 18.23352,23.11444 18.23352,35.95536 0,8.47497 -1.53799,12.32872 -7.44475,17.72183 -10.01588,9.24546 -25.94068,13.86671 -41.34975,11.81215 -8.21815,-1.02727 -12.84146,-0.77174 -14.12557,1.28284 -3.8523,6.16357 -1.28468,20.80396 8.73119,52.90604 16.43629,51.36361 23.37206,89.11804 23.37206,128.92472 0,37.49535 -4.87779,67.54145 -12.83914,77.55734 -1.52677,1.94318 -4.12931,6.08542 -7.02675,10.97254 a 600,600 0 0 0 37.41476,15.25707 c 34.69862,-27.43503 78.97527,-43.87223 124.66181,-44.10639 26.48937,0.18979 76.06344,14.82032 99.71864,29.81505 7.95844,5.08152 28.26348,21.77392 48.10984,39.37505 A 600,600 0 0 0 1000.0001,399.99828 600,600 0 0 0 399.99826,-199.99998 Z m 43.13345,166.721434 c -3.82012,-0.160518 -6.70964,0.484243 -6.70964,2.025146 0,4.365924 6.67694,8.215897 14.38142,8.215897 10.78633,0 13.09821,-3.592511 4.62324,-7.444756 -3.72387,-1.669323 -8.47483,-2.635769 -12.29502,-2.796287 z m -40.86687,10.241043 c -2.825,0 9.75997,18.7475705 13.09859,20.0316522 5.65,1.7977576 3.08293,-6.160898 -4.10795,-13.0949862 -3.85227,-3.852271 -7.96334,-6.936666 -8.99064,-6.936666 z m 144.61779,7.891584 c -1.3251,-0.186683 -2.4734,-0.145928 -3.44851,0.118915 -1.30015,0.353118 -2.29543,1.107297 -3.00169,2.262975 -2.05453,3.3386472 6.93705,8.7320969 38.26878,21.8297804 30.81813,12.8408986 29.78983,12.5861056 29.78983,8.9906406 0,-1.540917 -7.19197,-5.908517 -15.9237,-10.0176276 -8.98865,-3.852246 -21.82875,-10.7857036 -28.76285,-15.4084093 -7.36744,-4.6227171 -12.94654,-7.2162251 -16.92186,-7.7762741 z m -43.42894,12.9112094 c -1.99035,-0.128409 -2.31275,0.898014 -1.54228,3.08096115 3.85223,9.24546645 37.23819,25.17053645 37.23819,17.46598645 0,-3.338566 -12.06915,-11.5584907 -24.1396,-16.6948453 -5.90683,-2.43977168 -9.56596,-3.7236933 -11.55631,-3.8521023 z m -50.12778,0.043242 c -1.15965,-0.1458047 -2.10087,-0.081062 -2.88637,0.1837766 -1.04734,0.3531186 -1.81912,1.05914782 -2.46117,2.08640526 -2.05461,3.08186624 45.20087,33.38608774 52.13491,33.38608774 10.27268,0 -8.21745,-17.978469 -28.76284,-28.2511525 -9.10104,-4.62273439 -14.54557,-6.9677045 -18.02453,-7.4051171 z m -9.2645,25.4800886 c -1.47671,-0.288921 -2.50441,0.414805 -2.50441,2.212527 0,3.338593 7.44781,8.990242 9.50233,7.192513 0.77041,-1.027298 0.003,-3.33885 -1.79452,-5.650231 -1.79774,-2.182935 -3.72669,-3.465888 -5.2034,-3.754809 z m -72.46205,3.801654 c -1.51677,0.385226 -1.94947,2.649424 -1.94947,7.65736 0,4.879515 1.02576,8.990641 2.30982,8.990641 2.56823,0 5.39438,-6.16677 5.39438,-11.559911 0,-1.797702 -1.79752,-3.851872 -3.8521,-4.879089 -0.77046,-0.256826 -1.39702,-0.33741 -1.90263,-0.209001 z m -159.95773,6.630373 c -0.83467,0.192603 -1.86208,1.285881 -3.5314,3.34041 -2.5682,3.08184 -2.05508,3.337118 2.05398,2.30982 3.08177,-0.770458 4.62254,-2.312206 3.8521,-3.596256 -0.89887,-1.54091 -1.54002,-2.246584 -2.37468,-2.053974 z M 557.22457,375.51635 c 8.31447,0.16052 16.21062,1.69871 22.75947,4.65207 12.84093,5.90683 20.80394,6.4235 32.8744,2.05758 6.93408,-2.56818 9.24567,-2.57009 12.32745,0.51169 4.36587,4.62274 3.3385,6.41966 -12.32745,19.26051 -6.93405,5.39317 -14.12761,13.35686 -16.439,17.46599 -3.59543,6.93402 -3.59379,9.24417 0.5153,24.1396 2.31129,8.73179 3.85239,19.00646 2.82511,22.34508 -1.79769,7.70454 -13.8686,12.84071 -24.65489,10.52932 -13.86818,-3.08183 -31.84503,-1.79687 -53.41775,3.59625 -31.58857,8.21825 -47.77063,7.19009 -68.82975,-3.59625 -15.92263,-8.47498 -17.71825,-8.73112 -27.22056,-5.90608 -9.5022,2.82499 -11.04364,2.3103 -34.15723,-9.24649 -32.35906,-16.43633 -32.87501,-17.46509 -17.46599,-27.22416 33.1295,-21.31588 83.72427,-40.57662 124.30147,-47.76751 12.3273,-2.05458 27.4819,-5.39482 33.64554,-7.19251 8.21815,-2.5682 16.94941,-3.7856 25.26388,-3.62509 z m -63.53266,28.02414 c -4.10911,0 -68.3142,23.36914 -85.521,30.81681 l -6.41777,2.82512 6.41777,2.56927 c 9.24539,3.59546 31.59109,0.51454 68.82976,-9.75818 21.57261,-5.9068 35.69513,-8.47467 41.60198,-7.7042 4.87952,0.77046 10.53234,0.25613 12.5869,-0.77115 6.67724,-4.36584 1.02633,-9.24699 -15.92371,-13.86973 -9.24544,-2.31134 -19.00578,-4.36478 -21.57393,-4.10794 z m 190.8178,10.01762 c -3.59551,0 -6.67722,1.02477 -6.67722,2.56567 0,1.28412 2.31096,2.56927 4.87909,2.56927 2.82496,0 5.90675,-1.28515 6.67722,-2.56927 1.02724,-1.5409 -1.28367,-2.56567 -4.87909,-2.56567 z M 522.14846,453.2899 c -12.93371,-0.12791 -33.07676,1.83986 -47.20177,5.21061 -6.16358,1.5409 -6.16499,1.799 -1.54228,5.39438 2.82507,2.05456 10.27082,3.59266 16.69124,3.59266 14.12499,-0.25682 44.17293,-7.96085 44.68655,-11.55631 0.28891,-1.73354 -4.87354,-2.56459 -12.63374,-2.64134 z m -409.34983,5.02323 c 6.34381,-0.005 13.53079,2.43518 24.94317,7.63574 9.75908,4.62274 13.86847,8.21638 15.15256,12.83914 3.85227,15.92267 -8.98833,19.51808 -23.88375,6.67722 -14.89547,-13.09778 -22.34499,-9.24452 -29.022295,15.9237 -1.797684,6.67725 -6.93354,16.69346 -11.556307,21.82978 l -8.475346,9.75818 -1.798128,-11.55631 c -1.797707,-11.55684 2.311317,-40.83577 6.677217,-49.05394 1.027273,-2.31134 7.191733,-6.67642 13.09859,-9.75818 5.505509,-2.80895 9.930179,-4.29138 14.864289,-4.29533 z m 597.3281,99.35109 c 3.98066,0.0321 7.38326,1.89392 9.82304,5.6178 11.81364,17.72048 16.43766,112.23124 8.2195,162.31079 -8.47503,51.62052 -16.95039,83.20961 -24.6549,92.19822 -10.52955,11.81365 -31.58868,21.31502 -58.04098,25.93773 -38.52273,6.9341 -49.05144,15.15355 -51.61961,40.5786 -1.79775,17.72045 -6.93383,19.26162 -17.20654,5.65023 -7.96138,-10.27273 -11.81576,-9.76129 -11.81576,1.53868 0,10.01598 -10.27355,20.2911 -19.77581,20.2911 -15.15228,0 -65.74344,-5.6523 -71.90711,-7.96366 -5.13638,-2.05454 -6.1632,-3.59482 -4.87909,-8.73119 2.05453,-7.96137 -1.79777,-15.40993 -9.50233,-19.7758 -3.08183,-1.54096 -17.72214,-3.33581 -32.87439,-3.59266 -35.44093,-0.77043 -43.91739,-4.36646 -69.0856,-30.30512 -22.8568,-23.62731 -43.14429,-39.2954 -68.82615,-53.67719 l -19.00467,-10.27348 6.67722,-4.10795 c 11.55686,-6.93406 10.52969,-10.52931 -3.8521,-10.52931 -9.75912,0 -12.32965,-0.76863 -10.78877,-3.33681 1.02727,-1.54093 3.8551,-8.22038 5.90968,-14.64087 2.82493,-8.21817 5.64977,-12.06839 10.52932,-13.86613 10.5295,-3.59546 20.03206,-0.002 21.82978,8.2159 2.82502,12.84089 3.33856,13.35443 13.35443,13.35443 7.44775,0 11.55685,1.79765 16.17955,6.67722 7.96141,8.73178 20.02988,13.86973 32.8708,13.86973 5.64998,0 16.43961,2.31256 23.88735,5.39438 7.44776,3.08181 21.31455,6.42012 30.81682,7.70421 10.27277,1.28411 23.36949,5.13539 32.61495,9.75818 21.82957,11.29999 36.21065,14.38156 47.76751,10.52932 7.70451,-2.56818 9.24745,-4.10817 8.99064,-9.75818 -0.77046,-12.07046 -0.25618,-13.61137 7.44836,-16.17955 6.9341,-2.56824 7.19139,-3.08351 4.62324,-10.01763 -4.10908,-11.30002 0.25533,-20.80202 11.81216,-26.70887 9.50227,-4.62273 10.01721,-5.13693 8.2195,-14.12558 -4.62279,-27.22273 -4.368,-29.27771 4.36379,-43.65956 4.62276,-7.70453 11.5598,-16.17968 15.41201,-19.00466 7.96138,-5.90685 29.78912,-10.01331 87.05968,-15.92011 40.57728,-4.1091 43.1462,-4.1091 52.1349,0 11.29997,5.39323 15.92259,2.56494 13.35444,-7.7078 -7.65493,-28.53195 -94.44115,-3.57694 -103.49867,-0.25585 -10.5295,3.59546 -11.04102,3.59577 -11.04102,-1.02699 0,-3.33858 2.3094,-5.64994 7.18891,-6.67721 190.27383,-36.19822 26.02583,-58.44997 8.7348,-60.92016 56.93407,33.66477 -28.25357,3.39402 -22.86037,-7.90599 4.87951,-10.52956 4.88008,-10.52978 14.12557,-5.65023 3.85224,1.79771 19.00591,4.36347 33.90139,5.39078 45.45679,3.59542 51.87671,3.34045 60.09495,-3.33681 4.75114,-3.59547 9.30889,-5.39406 13.28958,-5.36195 z m -6.54029,27.43316 c -9.96319,0.94934 -16.4813,27.41104 7.24657,42.95689 5.90679,3.85227 3.20945,0.97574 4.49351,-2.61972 2.31137,-5.65003 -1.02418,-32.36157 -4.61964,-36.47065 -2.33647,-2.94603 -4.82124,-4.08559 -7.12044,-3.86652 z m -52.25382,90.7244 c -5.28085,0.1886 -9.96893,0.59034 -13.30759,1.23238 -2.82499,0.51366 -11.55598,2.31123 -19.26051,3.85211 -17.20687,3.33861 -53.93452,14.89391 -58.30044,18.48937 -5.13632,3.85224 -3.85052,15.66605 3.34041,28.50699 7.19094,12.8409 6.16349,18.23516 -2.82511,15.92371 -5.13641,-1.28406 -5.65023,-0.51226 -5.65023,8.2195 0,5.39319 -2.05601,13.61082 -4.3674,18.23352 -5.64998,10.78637 -4.36387,14.12457 8.99064,21.05864 10.27277,5.13636 10.78463,5.6484 6.16192,8.98704 -2.56814,2.05456 -6.9341,3.59626 -9.50233,3.59626 -5.64995,0 -6.16172,6.6766 -0.51169,8.73119 2.31134,1.02727 16.1781,2.3131 30.81682,3.34041 l 26.45302,1.54228 7.19252,-11.81575 c 6.93409,-11.81367 15.66373,-17.20654 27.22056,-17.20654 2.82499,0 10.27445,-3.08171 16.69484,-6.67722 9.50236,-5.64998 13.35546,-6.41908 22.60093,-5.13493 10.52952,1.28403 11.55708,1.02441 15.15256,-5.90968 5.13635,-10.27274 12.32607,-53.15947 10.78516,-65.2299 -1.79771,-13.09775 -7.95984,-22.08713 -18.48937,-26.45302 -6.16363,-2.50398 -27.35223,-3.85216 -43.19471,-3.28636 z m -8.20148,17.73264 c 4.84744,0 9.66231,1.09258 12.61572,3.27555 4.3659,3.0818 4.36657,3.59401 0.77114,5.13494 -2.31139,0.77046 -10.27506,0.77046 -17.46598,0 -12.07047,-1.28412 -12.84026,-2.05314 -8.7312,-5.13494 3.08186,-2.18297 7.96286,-3.27555 12.81032,-3.27555 z m 36.82739,7.74385 c 5.48161,-0.0542 9.97555,2.7369 14.30935,8.37084 8.47506,11.30006 8.47628,15.15137 -1.28283,25.93773 -8.21823,9.50227 -30.30336,19.51996 -43.14426,19.51996 -7.7046,0 -30.04977,-13.6109 -34.67253,-21.05864 -4.10911,-6.93409 1.54091,-10.53196 16.17955,-10.78877 9.24548,-0.25681 14.38291,-1.79698 18.74882,-5.90607 3.33864,-2.825 10.01353,-7.70337 14.89311,-10.78517 5.84264,-3.48311 10.70533,-5.24775 14.96879,-5.28988 z M 249.9032,736.93652 c 3.9784,0.0272 8.24589,3.63276 8.79966,8.4321 1.02722,8.21819 0.51328,8.21706 -8.47535,4.10795 -6.42047,-2.82505 -8.2187,-7.18971 -4.62324,-10.78517 1.22792,-1.22791 2.74216,-1.76553 4.29893,-1.75488 z m 150.30046,59.4175 c -1.53039,0.0933 -2.72228,0.82819 -3.58905,2.1765 -1.79775,3.33861 6.93633,7.96005 14.64087,7.96005 h 5.90607 l -6.42137,-5.13494 c -4.4943,-3.53124 -7.98592,-5.1571 -10.53652,-5.00161 z m 137.85409,95.20711 c -2.43978,0.25682 -6.10022,1.09194 -10.97975,2.50441 -4.62271,1.28412 -8.47535,3.59401 -8.47535,5.13493 0,2.56817 4.11142,1.79856 17.46599,-3.08096 3.08183,-1.28412 5.65023,-2.82579 5.65023,-3.59626 0,-0.89886 -1.22134,-1.21894 -3.66112,-0.96212 z"
       transform="matrix(3.7256709,0,0,-3.7256709,1063.3566,4025.6947)" /></g></svg>
