<?xml version="1.0" encoding="UTF-8" standalone="no"?>
<svg
   version="1.0"
   width="500.00003pt"
   height="500.00003pt"
   viewBox="0 0 500.00003 500.00003"
   preserveAspectRatio="xMidYMid"
   id="svg16"
   sodipodi:docname="favicon.svg"
   inkscape:export-filename="favicon-48x48.png"
   inkscape:export-xdpi="6.9119997"
   inkscape:export-ydpi="6.9119997"
   xml:space="preserve"
   inkscape:version="1.3 (1:1.3+202307231459+0e150ed6c4)"
   xmlns:inkscape="http://www.inkscape.org/namespaces/inkscape"
   xmlns:sodipodi="http://sodipodi.sourceforge.net/DTD/sodipodi-0.dtd"
   xmlns="http://www.w3.org/2000/svg"
   xmlns:svg="http://www.w3.org/2000/svg"><defs
     id="defs16" /><sodipodi:namedview
     id="namedview16"
     pagecolor="#000000"
     bordercolor="#cccccc"
     borderopacity="1"
     inkscape:showpageshadow="0"
     inkscape:pageopacity="1"
     inkscape:pagecheckerboard="0"
     inkscape:deskcolor="#d1d1d1"
     inkscape:document-units="pt"
     showguides="true"
     inkscape:zoom="0.35399998"
     inkscape:cx="333.33335"
     inkscape:cy="333.33335"
     inkscape:window-width="1280"
     inkscape:window-height="656"
     inkscape:window-x="0"
     inkscape:window-y="27"
     inkscape:window-maximized="1"
     inkscape:current-layer="svg16" /><g
     transform="matrix(0.1,0,0,-0.1,0,500)"
     fill="#000000"
     stroke="none"
     id="g16"><g
       id="g7"
       transform="matrix(1.1458724,0,0,1.1458724,-89.84599,-50.589293)"><rect
         style="fill:#ffffff;fill-opacity:1;stroke:#ffffff;stroke-width:758.38;stroke-linecap:round;stroke-linejoin:round;stroke-dasharray:none;stroke-opacity:1;paint-order:stroke fill markers"
         id="rect7"
         width="339.91058"
         height="225.30074"
         x="2965.3774"
         y="-1934.6967"
         transform="matrix(0.99999998,0,0,-0.99999998,0,-2.5000001e-5)" /><rect
         style="fill:#ffffff;fill-opacity:1;stroke:#ffffff;stroke-width:356.541;stroke-linecap:round;stroke-linejoin:round;stroke-dasharray:none;stroke-opacity:1;paint-order:stroke fill markers"
         id="rect6"
         width="724.11377"
         height="23.375771"
         x="2722.2117"
         y="-2300.594"
         transform="scale(1,-1)" /><rect
         style="fill:#ffffff;fill-opacity:1;stroke:#ffffff;stroke-width:758.38;stroke-linecap:round;stroke-linejoin:round;stroke-dasharray:none;stroke-opacity:1;paint-order:stroke fill markers"
         id="rect6-2"
         width="339.91058"
         height="225.30074"
         x="2965.3774"
         y="-1934.6967"
         transform="scale(1,-1)" /><rect
         style="fill:#ffffff;fill-opacity:1;stroke:#ffffff;stroke-width:1404.04;stroke-linecap:round;stroke-linejoin:round;stroke-dasharray:none;stroke-opacity:1;paint-order:stroke fill markers"
         id="rect6-2-1"
         width="255.86026"
         height="1025.9175"
         x="2979.8936"
         y="-1052.0699"
         transform="matrix(0.85355582,0.5210014,0.4569677,-0.88948329,0,0)" /><ellipse
         style="fill:#ffffff;fill-opacity:1;stroke:#ffffff;stroke-width:374.432;stroke-linecap:round;stroke-linejoin:round;stroke-dasharray:none;stroke-opacity:1;paint-order:stroke fill markers"
         id="path6"
         cx="2740.1873"
         cy="-2478.0852"
         transform="scale(1,-1)"
         rx="661.81244"
         ry="1043.9479" /><path
         d="m 2212.3974,4240.0411 c 7.9338,-18.5121 20.2752,-40.5502 29.0904,-50.247 22.0381,-24.6827 80.2188,-49.3654 119.0059,-49.3654 63.4699,0 23.8012,-37.9056 -50.2469,-47.6024 -52.01,-6.1707 -107.5461,-37.024 -145.4517,-80.2188 -14.986,-17.6305 -27.3273,-29.0904 -27.3273,-26.4458 0,12.3414 37.024,75.8112 66.9959,114.5984 l 31.7349,42.3132 -81.9818,-5.2892 c -104.9015,-6.1706 -254.7609,-44.9578 -421.3692,-108.4276 -316.4677,-121.6505 -501.588,-256.5239 -594.1481,-434.592 -52.8916,-100.494 -62.5884,-148.0963 -64.3515,-300.6002 -0.8814,-111.0722 -4.4076,-148.0963 -20.275,-198.3433 -31.7349,-104.9015 -27.3273,-128.7027 38.7871,-220.3813 96.9678,-135.755 130.4658,-212.4477 247.7087,-566.8209 92.5601,-282.0882 140.1625,-387.8712 254.7608,-565.9394 133.9919,-208.9215 171.8975,-300.6002 189.528,-455.7486 8.8153,-81.9819 0.8815,-261.8131 -14.986,-315.5862 -21.1566,-74.0481 -186.8833,-131.3472 -377.2929,-130.4658 -148.9777,1.7631 -302.3632,43.1948 -433.7105,118.1244 l -47.6023,27.3273 14.9859,23.8012 c 99.6123,156.0301 228.3151,275.9175 378.1744,351.7287 49.3655,24.6827 167.4899,62.5883 215.0922,68.759 46.7209,6.1707 142.8071,-9.6968 179.8313,-29.0904 44.9577,-22.9196 36.1425,-5.2891 -30.8535,60.8253 -145.4516,143.6886 -359.6624,203.6324 -569.4654,160.4376 C 1028.5087,1608.6875 882.1755,1556.6776 815.1796,1522.298 539.2621,1381.254 310.0655,1156.465 158.4431,876.1399 135.5235,833.8267 118.7745,796.8026 120.5375,794.158 c 2.6446,-1.7631 31.7349,0 65.2329,5.2892 86.3895,12.3413 156.9115,10.5783 245.9456,-4.4077 104.9016,-18.512 192.1725,-53.773 326.1645,-133.1103 63.4697,-37.0241 142.8071,-82.8634 177.1866,-101.3755 171.8974,-94.3232 386.9896,-93.4416 570.3469,2.6446 95.2048,49.3655 208.9216,161.3192 255.6424,249.4718 18.5121,34.3794 40.5502,71.4035 50.247,83.7449 27.3273,34.3795 44.0763,137.518 44.0763,266.2207 0,136.6364 -23.8013,266.2206 -80.2189,442.5258 -34.3795,110.1906 -43.1947,160.4376 -29.9718,181.5942 4.4076,7.0522 20.2751,7.9337 48.4839,4.4076 52.8915,-7.0522 107.5461,8.8152 141.9256,40.5502 20.275,18.512 25.5642,31.7349 25.5642,60.8252 0,44.0764 -8.8152,60.8253 -62.5883,123.4136 -59.9437,69.6405 -63.4698,82.8634 -64.3514,233.6043 -0.8815,114.5983 -3.5261,136.6364 -18.512,163.0822 l -17.6305,30.8534 -2.6446,-30.8534 c -8.8152,-112.8353 -57.2991,-205.3954 -130.4658,-254.7609 l -40.5502,-26.4458 24.6828,-6.1706 c 14.1044,-3.5261 37.9056,-7.0522 52.8915,-7.0522 22.9197,0 29.0904,-4.4076 37.9056,-29.0904 7.9338,-22.0381 22.0381,-35.261 53.7731,-51.1285 43.1947,-22.0381 79.3372,-59.0622 79.3372,-81.1003 0,-51.1285 -61.7067,-108.4277 -115.4798,-108.4277 -138.3995,0.8816 -312.06,254.7609 -342.0318,500.7066 -19.3936,159.5561 40.5501,266.2206 149.8593,266.2206 42.3132,0 273.2729,-66.1144 324.4013,-92.5601 47.6024,-23.8012 71.4036,-78.4558 96.9678,-215.9738 11.4599,-61.7068 48.4839,-135.7549 65.2329,-129.5842 7.0522,2.6446 10.5783,33.498 10.5783,98.7308 l -0.8815,94.3233 20.2751,-24.6828 20.2751,-25.5642 -0.8816,145.4517 c 0,127.8212 1.7631,151.6224 18.5121,195.6987 37.9056,102.2569 93.4417,149.8593 287.3773,248.5902 97.8494,49.3654 184.2388,113.7167 174.542,129.5842 -2.6445,4.4076 -15.8674,7.9337 -30.8533,7.9337 -22.0382,0 -25.5643,3.5261 -25.5643,24.6827 0,51.1285 -26.4458,114.5984 -66.1144,158.6746 -22.0381,23.8012 -39.6687,47.6024 -39.6687,52.01 0,20.2751 38.7872,41.4317 89.9157,48.4839 43.1947,5.2892 60.8252,13.2229 81.9818,33.498 43.1948,42.3132 81.9819,52.01 270.6283,70.522 98.7309,9.6968 219.4999,23.8012 268.8653,31.735 101.3755,14.9859 111.9538,12.3413 147.2148,-34.3795 26.4457,-35.2611 246.8271,-476.9053 255.6424,-512.1663 9.6967,-39.6687 -9.6968,-82.8634 -49.3655,-107.5461 -64.3513,-41.4317 -74.0481,-108.4277 -27.3273,-201.8694 29.0904,-58.1807 146.3332,-235.3673 166.6084,-251.2347 14.1043,-12.3414 14.9859,-11.4599 8.8152,8.8152 -14.9859,50.247 -15.8675,189.528 -1.763,263.5761 29.9718,156.9116 23.8011,178.0682 -175.4236,586.2145 -128.7027,264.4576 -137.518,313.823 -61.7068,345.558 39.6686,15.8674 82.8634,61.7067 104.9015,109.3091 28.2089,59.9437 25.5643,172.779 -4.4076,238.0119 -35.261,74.9296 -96.9678,151.6224 -177.1867,219.4998 -78.4556,66.996 -149.8592,106.6646 -227.4335,125.1766 -52.01,12.3414 -382.582,14.1044 -601.2003,2.6446 -97.8494,-4.4076 -112.8353,-7.0522 -112.8353,-20.2751 0,-8.8152 -5.2891,-22.0381 -11.4598,-30.8534 -11.4599,-14.9859 -15.8675,-14.1043 -83.745,24.6827 -39.6686,22.0382 -74.0481,40.5502 -76.6927,40.5502 -2.6446,0 1.7631,-14.9859 8.8152,-32.6164 z m 536.8491,-3.5261 c 29.0903,-13.2229 21.1566,-25.5643 -15.8675,-25.5643 -26.4457,0 -49.3654,13.2229 -49.3654,28.2089 0,10.5783 39.6687,8.8152 65.2329,-2.6446 z m -151.6224,-49.3654 c 24.6827,-23.8012 33.498,-51.1285 14.1044,-44.9578 -11.4598,4.4076 -54.6546,68.7589 -44.9578,68.7589 3.5261,0 17.6305,-10.5783 30.8534,-23.8011 z m 523.6261,-29.9719 c 23.8012,-15.8675 67.8775,-39.6686 98.7309,-52.8915 29.9718,-14.1044 54.6546,-29.0904 54.6546,-34.3796 0,-12.3413 3.5261,-13.2228 -102.257,30.8535 -107.5461,44.9577 -138.3995,63.4698 -131.3473,74.9296 9.6968,15.8675 35.261,9.6968 80.2188,-18.512 z m -317.3491,-43.1948 c 70.522,-35.261 133.9918,-96.9678 98.7308,-96.9678 -23.8012,0 -186.0019,104.02 -178.9496,114.5984 8.8152,14.1043 24.6826,10.5783 80.2188,-17.6306 z m 149.8593,12.3414 c 41.4317,-17.6305 82.8634,-45.8394 82.8634,-57.2991 0,-26.4458 -114.5983,28.2087 -127.8212,59.9437 -5.2892,14.9859 4.4076,14.1044 44.9578,-2.6446 z m -225.6705,-87.271 c 6.1707,-7.9337 8.8152,-15.8675 6.1707,-19.3936 -7.0523,-6.1707 -32.6165,13.2229 -32.6165,24.6827 0,12.3414 14.1044,9.6968 26.4458,-5.2891 z m -246.8272,-17.6306 c 0,-18.512 -9.6967,-39.6686 -18.512,-39.6686 -4.4076,0 -7.9338,14.1044 -7.9338,30.8534 0,22.9197 2.6446,29.0904 13.2229,25.5642 7.0523,-3.526 13.2229,-10.5783 13.2229,-16.749 z m -560.6502,-12.3413 c 2.6446,-4.4076 -2.6446,-9.6967 -13.2229,-12.3413 -14.1043,-3.5261 -15.8674,-2.6446 -7.0522,7.9337 11.4599,14.1044 14.1045,14.9859 20.2751,4.4076 z M 3552.3162,2703.5422 c -2.6446,-4.4076 -13.2229,-8.8153 -22.9197,-8.8153 -8.8152,0 -16.7489,4.4077 -16.7489,8.8153 0,5.2891 10.5782,8.8152 22.9196,8.8152 12.3414,0 20.2751,-3.5261 16.749,-8.8152 z"
         id="path1-2"
         style="fill:#1f2937;fill-opacity:1;stroke-width:0.881527" /><path
         d="m 3011.9411,2830.4819 c -21.1567,-6.1707 -73.1666,-17.6305 -115.4799,-24.6828 -139.281,-24.6827 -312.9415,-90.7971 -426.6583,-163.9637 -52.8915,-33.498 -51.1285,-37.0241 59.9437,-93.4417 79.3373,-39.6686 84.6265,-41.4317 117.2429,-31.7349 32.6165,9.6968 38.7872,8.8152 93.4417,-20.2751 72.2851,-37.0241 127.8212,-40.5502 236.2489,-12.3413 74.0481,18.512 135.7548,22.9196 183.3573,12.3413 37.024,-7.9337 78.4558,9.6968 84.6264,36.1426 3.5261,11.4598 -1.7631,46.7208 -9.6968,76.6927 -14.1044,51.1284 -14.1044,59.0622 -1.763,82.8634 7.9337,14.1044 32.6164,41.4317 56.4176,59.9437 53.7731,44.0763 57.2991,50.2469 42.3132,66.1144 -10.5783,10.5783 -18.512,10.5783 -42.3132,1.7631 -41.4317,-14.986 -68.759,-13.2229 -112.8353,7.0522 -44.9578,20.275 -108.4276,21.1566 -164.8452,3.5261 z m -57.2992,-97.8494 c 58.1807,-15.8674 77.5742,-32.6164 54.6546,-47.6023 -7.0522,-3.5261 -26.4458,-5.2892 -43.1947,-2.6446 -20.2752,2.6446 -68.7591,-6.1707 -142.8071,-26.4458 -127.8213,-35.261 -204.514,-45.8393 -236.2489,-33.4979 l -22.0382,8.8152 22.0382,9.6968 c 59.0622,25.5642 279.4436,105.783 293.548,105.783 8.8152,0.8816 42.3132,-6.1706 74.0481,-14.1044 z m 66.9959,-165.7268 c -1.763,-12.3413 -104.9015,-38.7871 -153.3854,-39.6686 -22.0381,0 -47.6023,5.2892 -57.2992,12.3414 -15.8674,12.3413 -15.8674,13.2228 5.2892,18.512 77.5742,18.512 208.04,24.6827 205.3954,8.8152 z"
         id="path2-7"
         style="fill:#1f2937;fill-opacity:1;stroke-width:0.881527" /><path
         d="m 1522.163,2543.9861 c -20.2751,-10.5783 -41.4317,-25.5643 -44.9578,-33.498 -14.986,-28.2088 -29.0903,-128.7027 -22.9197,-168.3714 l 6.1707,-39.6686 29.0903,33.498 c 15.8675,17.6305 33.4981,52.01 39.6687,74.9296 22.9197,86.3895 48.4839,99.6124 99.6124,54.6546 51.1285,-44.0763 95.2047,-31.7349 81.9818,22.9197 -4.4076,15.8674 -18.512,28.2088 -52.0099,44.0763 -69.6406,31.7349 -93.4418,33.4979 -136.6365,11.4598 z"
         id="path4-0"
         style="fill:#1f2937;fill-opacity:1;stroke-width:0.881527" /><path
         d="m 3206.7582,2186.9683 c -18.512,-38.7872 273.8896,-142.699 78.4641,-27.1453 59.3514,-8.4788 623.1321,-84.8537 -29.9802,-209.1035 -16.7489,-3.5262 -24.6827,-11.4599 -24.6827,-22.9197 0,-15.8675 1.7631,-15.8675 37.9056,-3.5262 31.0897,11.3996 328.9794,97.0541 355.2548,-0.8814 8.8152,-35.2611 -7.0523,-44.9579 -45.8393,-26.4459 -30.8535,14.1045 -39.6687,14.1045 -178.9497,0 -196.5802,-20.275 -271.5099,-34.3794 -298.8372,-54.6545 -13.2228,-9.6968 -37.024,-38.7871 -52.8915,-65.2329 -29.9718,-49.3654 -30.8534,-56.4176 -14.9859,-149.8593 6.1707,-30.8534 4.4076,-32.6164 -28.2088,-48.4839 -39.6687,-20.2751 -54.6546,-52.8915 -40.5502,-91.6786 8.8152,-23.8013 7.9337,-25.5643 -15.8675,-34.3796 -26.4458,-8.8152 -28.2088,-14.1043 -25.5642,-55.536 0.8815,-19.3936 -4.4076,-24.6828 -30.8534,-33.4981 -39.6687,-13.2228 -89.0341,-2.6445 -163.9638,36.1426 -31.7349,15.8675 -76.6926,29.0903 -111.9537,33.4979 -32.6164,4.4077 -80.2188,15.8676 -105.783,26.4459 -25.5643,10.5783 -62.5884,18.512 -81.9819,18.512 -44.0763,0 -85.508,17.6305 -112.8353,47.6023 -15.8674,16.749 -29.9719,22.9197 -55.5361,22.9197 -34.3794,0 -36.1425,1.7631 -45.8393,45.8394 -6.1707,28.2087 -38.7872,40.5501 -74.9297,28.2087 -16.7489,-6.1707 -26.4458,-19.3935 -36.1425,-47.6023 -7.0522,-22.0382 -16.749,-44.9578 -20.2751,-50.247 -5.2891,-8.8152 3.5261,-11.4598 37.0241,-11.4598 49.3654,0 52.8915,-12.3414 13.2229,-36.1426 l -22.9198,-14.1044 65.2329,-35.261 c 88.1526,-49.3654 157.7932,-103.1384 236.2489,-184.2388 86.3895,-89.0341 115.4799,-101.3755 237.1304,-104.02 52.0099,-0.8815 102.2569,-7.0522 112.8352,-12.3414 26.4458,-14.9859 39.6686,-40.5501 32.6165,-67.8774 -4.4077,-17.6305 -0.8816,-22.9197 16.749,-29.9719 21.1566,-7.9337 194.817,-27.3273 246.8271,-27.3273 32.6164,0 67.8775,35.261 67.8775,69.6406 0,38.787 13.2228,40.5501 40.5501,5.2891 35.261,-46.7209 52.8915,-41.4317 59.0622,19.3935 8.8153,87.2711 44.9578,115.4799 177.1866,139.2811 90.7971,15.8674 163.0823,48.4839 199.2248,89.0341 26.4457,30.8533 55.5361,139.281 84.6265,316.4676 28.2087,171.8975 12.3413,496.2988 -28.2089,557.1241 -16.749,25.5642 -46.7208,25.5642 -79.3372,0.8815 -28.2089,-22.9196 -50.2471,-23.8012 -206.277,-11.4598 -51.1285,3.5261 -103.1385,12.3413 -116.3614,18.512 -31.7349,16.749 -31.7349,16.749 -48.4839,-19.3935 z m 418.7246,-76.6928 c 12.3413,-14.1043 23.8012,-105.783 15.8675,-125.1766 -4.4076,-12.3414 4.8413,-22.2262 -15.4338,-9.0033 -100.2405,65.6748 -43.2069,188.1114 -0.4335,134.1799 z m -55.5361,-309.4154 c 36.1425,-14.9859 57.2991,-45.8393 63.4698,-90.7971 5.2892,-41.4317 -19.3935,-188.6465 -37.024,-223.9075 -12.3414,-23.8012 -15.8675,-24.6827 -52.0101,-20.2751 -31.7348,4.4077 -44.9577,1.7631 -77.5742,-17.6305 -22.0381,-12.3414 -47.6023,-22.9197 -57.2991,-22.9197 -39.6687,0 -69.6405,-18.512 -93.4417,-59.0622 l -24.6827,-40.5502 -90.7971,5.2892 c -50.2471,3.5261 -97.8494,7.9337 -105.7831,11.4598 -19.3936,7.0523 -17.6306,29.9719 1.763,29.9719 8.8153,0 23.8012,5.2892 32.6165,12.3414 15.8674,11.4598 14.1044,13.2229 -21.1567,30.8534 -45.8393,23.8011 -50.2469,35.261 -30.8534,72.2851 7.9338,15.8674 14.986,44.0762 14.986,62.5883 0,29.9718 1.763,32.6164 19.3936,28.2088 30.8533,-7.9338 34.3795,10.5783 9.6967,54.6545 -24.6827,44.0763 -29.0903,84.6265 -11.4598,97.8494 14.986,12.3413 141.0441,52.01 200.1063,63.4698 26.4457,5.2891 56.4176,11.4599 66.1144,13.223 45.8394,8.8152 165.7268,4.4075 193.9356,-7.0523 z m -974.0856,-419.6061 22.0381,-17.6306 h -20.2751 c -26.4458,0 -56.4176,15.8675 -50.2469,27.3273 7.9337,12.3414 23.8011,9.6969 48.4839,-9.6967 z m 449.5779,-312.9415 c 0,-2.6446 -8.8152,-7.9338 -19.3935,-12.3415 -45.8394,-16.7489 -59.9437,-19.3935 -59.9437,-10.5783 0,5.2892 13.2229,13.2229 29.0903,17.6306 33.4979,9.6967 50.2469,11.4598 50.2469,5.2892 z"
         id="path9-9"
         style="fill:#1f2937;fill-opacity:1;stroke-width:0.881527"
         sodipodi:nodetypes="cccscccccccccccsccsscsccccsccccccccsscccccccccccccccccccsccccscccscsccccccsccscscs" /><path
         d="m 3349.5653,1740.0349 c -14.1044,-10.5783 -11.4598,-13.2229 29.9719,-17.6306 24.6827,-2.6446 52.01,-2.6446 59.9437,0 12.3413,5.2892 12.3413,7.0523 -2.6446,17.6306 -20.275,14.9859 -66.1143,14.9859 -87.271,0 z"
         id="path10-3"
         style="fill:#1f2937;fill-opacity:1;stroke-width:0.881527" /><path
         d="m 3468.5712,1706.5369 c -16.749,-10.5783 -39.6686,-27.3273 -51.1284,-37.0241 -14.9859,-14.1044 -32.6165,-19.3936 -64.3514,-20.2751 -50.2469,-0.8815 -69.6405,-13.2229 -55.536,-37.0241 15.8674,-25.5642 92.5601,-72.285 119.0059,-72.285 44.0762,0 119.8874,34.3794 148.0963,66.9959 33.4979,37.024 33.4979,50.2469 4.4076,89.0341 -26.4458,34.3794 -54.6546,37.9056 -100.494,10.5783 z"
         id="path11-6"
         style="fill:#1f2937;fill-opacity:1;stroke-width:0.881527" /><path
         d="m 2029.0401,1596.3462 c -12.3413,-12.3413 -6.1706,-27.3273 15.8675,-37.0241 30.8534,-14.1044 32.6164,-14.1044 29.0904,14.1044 -2.6446,22.9197 -29.9719,37.9056 -44.9579,22.9197 z"
         id="path15-0"
         style="fill:#1f2937;fill-opacity:1;stroke-width:0.881527" /><path
         d="M 3435.0575,1052.0405 C 3257.2009,994.52482 3120.9329,836.13522 3097.0416,658.27879 l -5.3091,-42.47331 40.7034,45.12792 c 53.9763,59.28545 98.2192,84.94625 189.3596,107.06772 136.2682,31.85484 288.4637,20.35175 422.9628,-33.62465 62.8249,-24.7759 61.9396,-19.46685 15.0438,-104.41319 -64.5965,-114.14666 -208.8278,-241.5663 -331.8236,-292.0031 -57.5158,-23.00636 -162.8138,-29.2004 -209.7113,-11.50327 l -24.776,8.84866 30.97,-31.85484 c 36.2792,-37.16408 116.8013,-84.06153 185.8202,-107.0679 68.134,-23.00627 215.9051,-23.00627 283.1544,0 284.0404,97.33443 514.9877,309.70032 654.7958,601.70351 23.0066,49.55215 45.1278,99.10406 48.6665,110.60725 5.3094,18.58203 4.4258,20.35175 -9.7326,15.04261 -45.1286,-18.58204 -162.8138,-32.73975 -224.7542,-27.43052 -99.1037,8.84848 -156.62,25.6608 -294.6575,89.37054 -69.0196,31.85488 -147.7718,63.70978 -174.318,70.78868 -67.2493,17.6972 -195.5535,15.0426 -258.3783,-4.4244 z"
         id="path16-6"
         style="fill:#ffffff;fill-opacity:1;stroke-width:0.884866" /></g></g></svg>
