<?xml version="1.0" encoding="utf-8"?><!DOCTYPE svg PUBLIC "-//W3C//DTD SVG 1.1//EN" "http://www.w3.org/Graphics/SVG/1.1/DTD/svg11.dtd"><svg version="1.1" id="Contours" xmlns="http://www.w3.org/2000/svg" xmlns:xlink="http://www.w3.org/1999/xlink" x="0px" y="0px" width="2038.185425px" height="2038.185425px" viewBox="-0.000000 -0.000000 2038.185425 2038.187012" enable-background="new 0 0 2038.185425 2038.185425" xml:space="preserve" stroke="black" fill="none" stroke-linecap='round' stroke-linejoin='round'><path class="selected"  fill="#000000" opacity="1.000000" stroke="none" 
 	d="
M1390.342710 2038.093510 C1390.092710 1988.433353 1390.187558 1938.772831 1389.983945 1889.113529 C1389.955503 1882.163456 1391.309873 1881.070805 1398.035825 1881.072269 C1529.685239 1881.100956 1661.334775 1881.061161 1792.984067 1881.213993 C1798.141782 1881.219974 1799.269223 1879.755009 1799.211362 1874.823612 C1798.942807 1851.996342 1799.089780 1829.164188 1799.094907 1806.333866 C1799.096128 1800.848392 1800.866391 1799.096317 1806.400937 1799.095341 C1829.231260 1799.090946 1852.063657 1798.934818 1874.890439 1799.217167 C1879.921323 1799.279301 1881.207944 1797.972904 1881.206723 1792.916996 C1881.084775 1281.983890 1881.090268 771.050663 1881.134092 260.117496 C1881.134458 255.698978 1881.711728 251.276234 1882.108945 246.863483 C1882.393247 243.703968 1879.470884 241.638676 1875.454282 242.224873 C1873.245298 242.547245 1871.027890 243.048466 1868.813047 243.055637 C1848.815976 243.120350 1828.818418 243.093525 1808.821103 243.093510 C1800.549131 243.093510 1799.376157 242.600681 1799.215757 234.271397 C1798.833799 214.448017 1799.043637 194.612049 1799.137754 174.781757 C1799.154721 171.194996 1800.132749 167.597019 1799.999082 164.029255 C1799.828305 159.475468 1795.701474 161.138859 1793.194761 160.567265 C1791.737851 160.235004 1790.056821 161.067356 1788.476621 161.067631 C1630.830625 161.095341 1473.184507 161.087284 1315.538511 161.119526 C1310.049131 161.120655 1307.937436 160.126240 1307.966733 153.575993 C1308.194638 102.582668 1308.092710 51.587860 1308.092710 0.343510 C1549.926084 0.093510 1791.759336 0.103647 2033.592710 0.000127 C2037.341855 -0.001478 2038.185971 0.844513 2038.185483 4.593523 C2038.089170 680.926823 2038.089048 1357.260136 2038.185483 2033.593510 C2038.185971 2037.342533 2037.341977 2038.188847 2033.592710 2038.187015 C1819.259336 2038.082035 1604.926084 2038.093510 1390.342710 2038.093510 z"/><path class="selected"  fill="#000000" opacity="1.000000" stroke="none" 
 	d="
M651.842710 0.093510 C652.092710 51.586353 652.093137 103.079197 652.092038 154.572041 C652.091977 159.946415 651.032773 161.082966 645.651303 161.083500 C515.336118 161.096348 385.020871 161.096195 254.705671 161.065830 C252.890058 161.065403 251.001889 160.215733 249.272062 160.505512 C243.157087 161.529850 242.061078 163.535938 242.743543 170.321918 C242.955838 172.432850 242.131131 174.627109 242.124509 176.784290 C242.068723 194.948261 242.070310 213.112568 242.129132 231.276508 C242.134702 232.995029 242.581342 234.726582 242.943799 236.426350 C243.595502 239.482380 241.024961 243.051624 237.775617 243.060780 C215.612195 243.123264 193.448514 243.105900 171.285016 243.062626 C169.961179 243.060047 168.577649 242.234913 167.325269 242.436085 C161.648160 243.347996 160.241178 245.042835 160.115506 251.035206 C160.006025 256.255985 160.092710 261.480930 160.092710 266.704014 C160.092710 774.800053 160.092435 1282.896000 160.104291 1790.992069 C160.104322 1792.619633 160.116758 1794.277103 160.406308 1795.869022 C161.129071 1799.842655 163.285596 1801.228641 167.224759 1799.538944 C168.352369 1799.055302 169.759671 1799.111576 171.038938 1799.110233 C192.369291 1799.086796 213.699659 1799.086430 235.030027 1799.097416 C242.094571 1799.100956 243.790052 1801.469242 242.134015 1808.674198 C241.842969 1809.940433 242.092710 1811.330936 242.092710 1812.664066 C242.092710 1832.827885 242.092374 1852.991825 242.092862 1873.155643 C242.093076 1881.892704 242.373365 1882.135502 250.705228 1881.113041 C251.854428 1880.971928 253.035855 1881.093510 254.202359 1881.093510 C383.850980 1881.093510 513.499631 1881.092045 643.148252 1881.109745 C644.760495 1881.109989 646.376340 1881.321781 647.984311 1881.492802 C651.396421 1881.855595 652.196531 1883.699711 652.187192 1887.111942 C652.049863 1937.272221 652.092710 1987.432865 652.092710 2037.843510 C436.259366 2038.093510 220.426038 2038.082157 4.592755 2038.187015 C0.843489 2038.188847 -0.000534 2037.342533 0.000000 2033.593510 C0.096318 1357.260136 0.096318 680.926823 0.000000 4.593523 C-0.000534 0.844514 0.843487 -0.001820 4.592755 0.000003 C220.259381 0.104872 435.926053 0.093510 651.842710 0.093510 z"/><path class="selected"  fill="#000000" opacity="1.000000" stroke="none" 
 	d="
M406.092710 1024.093510 C406.092710 1035.426762 406.257016 1046.263920 406.005246 1057.091312 C405.914884 1060.977543 406.960233 1062.212650 410.971921 1062.182011 C434.470487 1062.001835 457.971097 1062.092533 481.471036 1062.094120 C487.664151 1062.094486 488.092191 1062.538822 488.092405 1068.936283 C488.093137 1092.269535 488.201413 1115.603764 487.993253 1138.935184 C487.955472 1143.167850 489.207273 1144.216312 493.314603 1144.184086 C516.979734 1143.998173 540.648130 1144.208622 564.312741 1143.991703 C568.782773 1143.950809 570.267026 1144.910770 570.213803 1149.694462 C569.948789 1173.524784 570.182248 1197.360233 570.004819 1221.192265 C569.975217 1225.178959 571.169309 1226.207890 575.071347 1226.179569 C598.903379 1226.007450 622.738095 1226.195805 646.569699 1225.998783 C650.828611 1225.963627 652.241941 1226.950809 652.199155 1231.450932 C651.972593 1255.282108 652.201841 1279.117435 651.991452 1302.948856 C651.953916 1307.208256 653.247495 1308.213139 657.328244 1308.182133 C681.160154 1308.001347 704.994748 1308.179935 728.826780 1308.009159 C732.848935 1307.980473 734.237241 1308.888187 734.197812 1313.207767 C733.978696 1337.205570 734.182187 1361.207279 734.004514 1385.205936 C733.974912 1389.208012 735.197873 1390.206791 739.085019 1390.179203 C763.083738 1390.008671 787.084897 1390.177250 811.083615 1390.008671 C814.950071 1389.981571 816.211545 1390.941288 816.181455 1394.964237 C816.002134 1418.962772 816.203672 1442.964481 815.989743 1466.962406 C815.951535 1471.248905 817.287595 1472.210087 821.341977 1472.180180 C845.173886 1472.003910 869.008481 1472.182499 892.840451 1472.007206 C896.888730 1471.977299 898.235471 1472.928593 898.196225 1477.221439 C897.979795 1500.886112 898.001218 1524.554325 898.181333 1548.219486 C898.211911 1552.238407 896.955075 1553.185307 893.087095 1553.175541 C843.587583 1553.051151 794.087583 1553.093510 744.587766 1553.093510 C734.236081 1553.093510 734.206845 1553.093754 734.103757 1542.624027 C734.043088 1536.458012 734.092710 1530.290897 734.092710 1524.124271 C734.092710 1510.124271 734.092710 1496.124393 734.092710 1482.124393 C734.092710 1481.291019 734.056455 1480.455936 734.098264 1479.624638 C734.527646 1471.093388 734.531247 1471.093510 725.573362 1471.093510 C704.573423 1471.093510 683.573484 1471.093510 662.573545 1471.093510 C652.230893 1471.093510 652.186032 1471.093876 652.106504 1460.609867 C652.039487 1451.776981 652.092710 1442.943363 652.092710 1434.109989 C652.092710 1425.109989 651.987302 1416.108402 652.137693 1407.110844 C652.211606 1402.687504 652.710019 1398.267460 653.108884 1393.854252 C653.409787 1390.524540 650.391782 1388.683109 646.090085 1389.572758 C644.684873 1389.863407 643.232785 1390.069950 641.801755 1390.072025 C620.301877 1390.103153 598.801206 1390.001102 577.302549 1390.165775 C572.594724 1390.201786 570.982663 1388.540653 571.016172 1383.837894 C571.183469 1360.339115 571.001340 1336.837772 571.179990 1313.339237 C571.210813 1309.278202 570.238157 1307.951420 565.958188 1307.990971 C542.626950 1308.206791 519.292661 1308.093876 495.959378 1308.093143 C489.402616 1308.093021 489.092710 1307.771366 489.092710 1300.995731 C489.092710 1277.662479 489.001493 1254.328495 489.180600 1230.996708 C489.211179 1227.011723 488.020017 1225.978764 484.115873 1226.007328 C460.450559 1226.180180 436.782865 1226.018192 413.117124 1226.160404 C408.666349 1226.187138 406.996793 1224.677616 407.025052 1220.152714 C407.170774 1196.820316 406.982053 1173.485599 407.187864 1150.154179 C407.228116 1145.592411 406.307889 1143.900761 401.272214 1143.964848 C378.276029 1144.257572 355.273984 1144.070316 332.274137 1144.108524 C325.959501 1144.119022 324.914090 1142.245121 324.977170 1136.809086 C325.247953 1113.479008 325.020902 1090.143436 325.167203 1066.811161 C325.190122 1063.151127 324.173459 1061.990238 320.430722 1062.014652 C296.765134 1062.170048 273.097440 1062.006107 249.431974 1062.168705 C244.806852 1062.200443 242.984067 1060.767216 243.018064 1055.967289 C243.183286 1032.635136 243.172055 1009.300846 243.024732 985.968510 C242.995801 981.383793 244.798444 980.003178 249.182981 980.028568 C272.848752 980.165714 296.516446 980.003788 320.181699 980.181156 C324.157743 980.211002 325.208768 979.037357 325.179166 975.124515 C325.003904 951.959293 325.297513 928.789005 324.962522 905.627323 C324.867337 899.047367 327.045377 898.050541 332.525327 898.066166 C355.358365 898.131229 378.194150 897.917423 401.023221 898.226261 C406.256406 898.297001 407.262723 896.652286 407.207975 891.781254 C406.949430 868.784183 407.255490 845.780643 406.958890 822.784489 C406.897672 818.038639 408.480344 816.060429 413.867917 816.071964 C437.201047 816.122196 460.535154 815.997623 483.866910 816.183536 C487.966794 816.216251 489.230771 815.179325 489.192716 810.939030 C488.983304 787.607670 489.092313 764.273380 489.092923 740.940128 C489.093106 734.969425 489.981229 734.098820 496.210508 734.096683 C519.377073 734.088688 542.544858 733.973148 565.709226 734.198368 C570.170896 734.241764 571.228269 732.896244 571.190061 728.596439 C570.984311 705.431705 571.092710 682.264103 571.092710 659.097538 C571.092710 653.019840 571.981992 652.100712 578.053159 652.097843 C600.886411 652.087040 623.720578 651.989811 646.552121 652.186771 C650.783567 652.223209 652.248105 651.280704 652.200559 646.753483 C651.964292 624.256046 652.125913 601.754765 652.075437 579.254948 C652.056821 570.966618 653.886045 570.949833 660.396543 571.010685 C683.227781 571.224186 706.063230 570.990421 728.894773 571.187687 C733.049375 571.223515 734.225339 570.096378 734.189023 565.911137 C733.987973 542.746342 734.134641 519.578678 734.062803 496.412327 C734.045163 490.722996 735.525327 488.945255 741.238950 488.969547 C791.571225 489.183445 841.905027 489.169437 892.237424 488.974461 C897.193723 488.955265 898.236631 490.487431 898.193235 495.118320 C897.974363 518.449528 898.004880 541.784550 898.178952 565.116459 C898.208005 569.020451 897.174802 570.212040 893.189756 570.181461 C869.857846 570.002323 846.523862 570.093510 823.190610 570.093510 C816.414792 570.093510 816.093137 570.403324 816.092954 576.960026 C816.092282 600.293278 815.979490 623.627567 816.195310 646.958805 C816.234861 651.238346 814.908445 652.210941 810.847104 652.180729 C787.015195 652.003239 763.180600 652.181889 739.348630 652.007816 C735.307248 651.978336 733.950193 652.918034 733.988889 657.217777 C734.204892 681.215763 734.002622 705.217350 734.181089 729.215946 C734.210935 733.229740 732.965940 734.206181 729.090329 734.178776 C705.091611 734.009159 681.090512 734.178043 657.091794 734.007999 C653.212095 733.980534 651.974668 734.964725 652.004453 738.974369 C652.182615 762.972965 651.979856 786.974613 652.196897 810.972599 C652.235898 815.278873 650.868589 816.208683 646.833493 816.178837 C623.334836 816.004642 599.833615 816.182194 576.334836 816.018681 C571.633420 815.985966 569.988034 817.614811 570.019895 822.316837 C570.179013 845.815678 570.007322 869.316776 570.175290 892.815494 C570.203855 896.815067 569.333738 898.241825 564.990415 898.200260 C541.492673 897.975162 517.991574 898.091618 494.491666 898.094974 C488.644834 898.095768 488.093900 898.664921 488.093442 904.659000 C488.091733 927.825565 488.013974 950.992680 488.160398 974.158329 C488.188993 978.688480 486.507688 980.187504 482.062619 980.160282 C458.730222 980.017521 435.396024 980.171085 412.063688 980.026066 C407.565152 979.998112 405.953244 981.604557 406.024076 986.088505 C406.221585 998.587406 406.092710 1011.091495 406.092710 1024.093510 z"/><path class="selected"  fill="#000000" opacity="1.000000" stroke="none" 
 	d="
M1488.092710 734.093510 C1507.757871 734.093510 1526.923276 734.135929 1546.088193 734.067020 C1551.669614 734.046879 1553.293393 735.839237 1553.223813 741.054447 C1552.919370 763.881962 1553.092710 786.715885 1553.092710 809.547489 C1553.092710 816.941959 1555.659604 818.823795 1562.893369 816.818912 C1564.256406 816.441166 1565.692319 816.126957 1567.095517 816.123905 C1587.427182 816.079594 1607.759092 816.134464 1628.090635 816.066532 C1633.620420 816.048099 1635.292539 817.807133 1635.224302 823.056828 C1634.920713 846.384464 1635.088193 869.718265 1635.096006 893.049869 C1635.097959 898.748051 1636.034116 899.423649 1641.606992 898.130558 C1642.714048 897.873722 1643.931577 898.093510 1645.098203 898.093510 C1666.763242 898.093510 1688.428403 898.132816 1710.093198 898.066105 C1715.571836 898.049259 1717.295224 899.774845 1717.225034 905.059330 C1716.917905 928.220158 1717.194883 951.388248 1716.999814 974.551517 C1716.964170 978.779789 1717.901548 980.245792 1722.430600 980.201237 C1745.926450 979.969730 1769.426572 980.179996 1792.923642 980.021122 C1797.668271 979.989017 1799.205747 981.707218 1799.171079 986.389164 C1798.999082 1009.552799 1799.006040 1032.718998 1799.164731 1055.882816 C1799.196958 1060.589237 1797.540830 1062.203373 1792.838803 1062.169926 C1769.341611 1062.003178 1745.842099 1062.183598 1722.345151 1062.007328 C1718.298032 1061.976932 1716.949521 1062.927128 1716.989194 1067.220585 C1717.206479 1090.716679 1717.094541 1114.216068 1717.091367 1137.714237 C1717.090635 1143.015385 1716.034970 1144.080082 1710.508359 1144.084965 C1687.510068 1144.105473 1664.511899 1144.091801 1641.513608 1144.094852 C1635.639219 1144.095707 1635.093930 1144.654301 1635.093442 1150.636234 C1635.091733 1173.801151 1634.979306 1196.967045 1635.186948 1220.130131 C1635.229184 1224.835941 1632.987119 1226.078495 1629.091489 1226.082645 C1607.759824 1226.105473 1586.428037 1226.093510 1565.096372 1226.093510 C1563.039365 1226.093510 1560.936460 1226.371342 1558.934140 1226.040653 C1553.302671 1225.110599 1552.972348 1228.162113 1553.007627 1232.639286 C1553.190366 1255.802860 1552.979062 1278.969486 1553.187436 1302.132572 C1553.229673 1306.842411 1550.981626 1308.078251 1547.089048 1308.082523 C1525.757383 1308.105595 1504.425595 1308.093510 1483.093930 1308.093510 C1481.036924 1308.093510 1478.934018 1308.371342 1476.931699 1308.040653 C1471.296323 1307.109745 1470.973081 1310.168583 1471.008115 1314.641727 C1471.190122 1337.805302 1470.978940 1360.971928 1471.187314 1384.135014 C1471.229795 1388.847172 1468.978086 1390.078373 1465.086606 1390.082645 C1443.754941 1390.105595 1422.423154 1390.106327 1401.091489 1390.068241 C1399.453428 1390.065311 1397.743955 1389.302128 1396.190732 1389.580082 C1390.487973 1390.599735 1389.091489 1392.456791 1389.091977 1398.229252 C1389.093686 1418.784916 1389.068906 1439.340580 1389.132749 1459.896000 C1389.138608 1461.769657 1389.651059 1463.652836 1390.025693 1465.511845 C1390.680722 1468.762943 1388.568906 1471.081181 1384.741025 1471.084232 C1361.742734 1471.102787 1338.744443 1471.093510 1315.746152 1471.093510 C1307.742002 1471.093510 1307.402036 1471.220585 1307.147275 1478.905155 C1306.897153 1486.453495 1307.092710 1494.016483 1307.092710 1501.573124 C1307.092710 1515.238773 1307.092710 1528.904423 1307.092710 1542.570072 C1307.092710 1543.903324 1306.854551 1545.288944 1307.134702 1546.560429 C1308.254453 1551.644413 1307.204648 1553.088749 1302.067075 1553.090580 C1280.902036 1553.097660 1259.736875 1553.093510 1238.571836 1553.093510 C1208.740781 1553.093510 1178.909360 1553.023807 1149.079160 1553.178226 C1145.187436 1553.198368 1143.973813 1552.196537 1144.004575 1548.200687 C1144.184385 1524.870609 1144.184507 1501.537601 1144.017392 1478.207157 C1143.982969 1473.391239 1145.835752 1471.987186 1150.443662 1472.019291 C1173.607480 1472.181034 1196.773618 1472.004887 1219.937436 1472.166630 C1224.698911 1472.199833 1226.204526 1470.449467 1226.170346 1465.784061 C1226.000303 1442.620487 1226.179013 1419.454227 1226.020932 1396.290409 C1225.988828 1391.574589 1227.658872 1389.981693 1232.360532 1390.015751 C1255.857480 1390.185795 1279.357114 1390.000858 1302.853818 1390.181644 C1306.927549 1390.213016 1308.233579 1389.219242 1308.194516 1384.952640 C1307.980771 1361.623051 1308.092344 1338.290531 1308.092954 1314.958988 C1308.093198 1308.403202 1308.414731 1308.093510 1315.190732 1308.093510 C1338.522275 1308.093510 1361.854673 1308.002567 1385.184751 1308.181400 C1389.163633 1308.211918 1390.207578 1307.031376 1390.179013 1303.122074 C1390.005796 1279.458378 1390.167295 1255.792484 1390.025937 1232.128422 C1389.999448 1227.689091 1391.487729 1225.997074 1396.022275 1226.025761 C1419.186216 1226.172245 1442.351621 1226.094486 1465.516538 1226.092777 C1471.516050 1226.092289 1472.090390 1225.538822 1472.091367 1219.706058 C1472.094907 1196.707767 1472.091733 1173.709598 1472.093320 1150.711307 C1472.093686 1144.522831 1472.539365 1144.093998 1478.938535 1144.093876 C1501.936826 1144.093143 1524.935605 1144.004765 1547.932798 1144.166386 C1552.688535 1144.199955 1554.204892 1142.459965 1554.170469 1137.788700 C1553.999814 1114.625126 1554.179013 1091.458866 1554.020932 1068.295048 C1553.988828 1063.582767 1555.653501 1061.982304 1560.355893 1062.016117 C1583.852964 1062.185307 1607.352475 1062.001713 1630.849424 1062.181034 C1634.914121 1062.212040 1636.232846 1061.232670 1636.195005 1056.957401 C1635.982724 1032.961063 1636.002256 1008.961185 1636.181455 984.964359 C1636.211484 980.942265 1634.950864 979.980900 1631.084287 980.008549 C1607.420591 980.178287 1583.754697 980.017155 1560.090635 980.161137 C1555.614194 980.188358 1553.997617 978.628300 1554.025327 974.126957 C1554.169736 950.629642 1553.991636 927.130070 1554.185849 903.633488 C1554.220761 899.402164 1553.278867 897.942387 1548.752988 897.985966 C1524.923642 898.215519 1501.090024 897.988712 1477.260190 898.191654 C1473.046933 898.227482 1471.967832 897.007145 1472.000791 892.881473 C1472.189756 869.218143 1471.980527 845.551456 1472.192563 821.888493 C1472.232358 817.446110 1471.318174 815.915409 1466.507383 815.970829 C1443.012387 816.241642 1419.511899 816.015568 1396.014585 816.161259 C1391.473447 816.189396 1389.999936 814.482609 1390.026303 810.050968 C1390.167173 786.386906 1390.005429 762.720890 1390.179136 739.057316 C1390.207944 735.139835 1389.147763 733.975468 1385.177304 734.005863 C1361.847104 734.184086 1338.514707 734.093510 1315.183164 734.093510 C1308.418637 734.093510 1308.093076 733.779301 1308.092954 727.220463 C1308.092344 703.888920 1307.979428 680.556278 1308.195615 657.226749 C1308.235166 652.945194 1306.905332 651.975712 1302.846372 652.006473 C1279.349546 652.184818 1255.849912 652.002079 1232.352964 652.170536 C1227.650449 652.204227 1225.989072 650.599125 1226.020932 645.888981 C1226.178525 622.558536 1225.980405 599.225285 1226.191709 575.895695 C1226.231870 571.466129 1225.338071 569.915531 1220.514707 569.970341 C1196.686216 570.241032 1172.852475 570.005253 1149.022153 570.180729 C1145.067197 570.209843 1143.976255 569.076542 1144.005796 565.143619 C1144.181821 541.813419 1144.167417 518.480717 1144.026670 495.149967 C1143.999936 490.732273 1145.448545 489.019047 1150.000425 489.028324 C1200.663022 489.131718 1251.325986 489.091679 1301.988828 489.096256 C1307.421201 489.096744 1308.070981 489.899448 1307.118222 495.043796 C1306.939145 496.010563 1307.092710 497.038914 1307.092710 498.038853 C1307.092710 519.703861 1307.085019 541.368900 1307.096860 563.033939 C1307.100888 570.489567 1307.715390 571.093510 1314.996518 571.093510 C1337.994809 571.093510 1360.992978 571.089603 1383.991269 571.096317 C1389.422422 571.097904 1390.060849 571.896183 1389.122861 577.047001 C1388.917173 578.176090 1389.092710 579.374699 1389.092710 580.541264 C1389.092710 601.872990 1389.090757 623.204716 1389.093686 644.536442 C1389.094785 652.823734 1389.485776 652.789921 1397.592954 652.210392 C1405.220151 651.665226 1412.916806 652.093510 1420.582944 652.093510 C1435.081845 652.093510 1449.580991 652.143009 1464.079526 652.068973 C1469.846982 652.039555 1471.287168 653.955875 1471.221372 659.045597 C1470.925840 681.873417 1471.092710 704.707157 1471.092710 727.538761 C1471.092710 734.678593 1473.073545 736.330326 1480.004331 735.111027 C1482.515805 734.669193 1485.062192 734.426884 1488.092710 734.093510 z"/></svg>