<?xml version="1.0" standalone="no"?>
<!DOCTYPE svg PUBLIC "-//W3C//DTD SVG 20010904//EN"
 "http://www.w3.org/TR/2001/REC-SVG-20010904/DTD/svg10.dtd">
<svg version="1.0" xmlns="http://www.w3.org/2000/svg"
 width="1080.000000pt" height="1080.000000pt" viewBox="0 0 1080.000000 1080.000000"
 preserveAspectRatio="xMidYMid meet">
<metadata>
Created by potrace 1.14, written by Peter Selinger 2001-2017
</metadata>
<g transform="translate(0.000000,1080.000000) scale(0.100000,-0.100000)"
fill="#000000" stroke="none">
<path d="M5286 10273 c12 -50 76 -163 108 -190 47 -40 165 -91 227 -98 29 -3
69 -8 87 -11 87 -13 -15 -88 -148 -108 -19 -3 -45 -8 -57 -11 -13 -3 -32 -7
-42 -9 -31 -7 -143 -65 -180 -93 -18 -14 -60 -53 -92 -86 -32 -34 -61 -59 -63
-56 -6 6 50 116 70 140 8 8 14 19 14 23 0 4 31 49 68 99 89 120 87 116 60 112
-13 -2 -75 -6 -138 -10 -63 -4 -117 -8 -120 -10 -3 -1 -34 -6 -69 -9 -35 -4
-67 -8 -70 -10 -3 -2 -24 -7 -46 -10 -204 -32 -727 -200 -980 -315 -22 -10
-65 -29 -95 -42 -30 -13 -115 -54 -188 -91 -506 -256 -807 -532 -987 -902
-105 -216 -122 -306 -130 -676 -6 -295 -12 -351 -47 -475 -72 -255 -66 -321
46 -487 30 -46 87 -130 126 -188 166 -248 256 -464 525 -1265 251 -748 361
-987 684 -1485 20 -30 38 -59 41 -65 3 -5 21 -36 40 -68 75 -125 91 -156 143
-262 83 -169 140 -341 162 -485 4 -25 9 -54 11 -65 21 -109 21 -576 0 -680 -2
-11 -7 -46 -10 -78 -14 -121 -45 -170 -150 -238 -92 -60 -264 -120 -416 -143
-19 -3 -46 -8 -60 -11 -43 -9 -210 -19 -305 -19 -89 0 -274 13 -285 19 -3 1
-27 6 -55 9 -93 13 -362 85 -430 116 -11 5 -49 21 -85 36 -61 26 -153 73 -277
140 -29 16 -53 32 -53 37 0 9 110 176 144 219 11 14 32 41 46 59 75 100 287
314 397 402 148 118 328 223 488 287 70 28 291 97 339 106 12 2 32 6 46 9 107
23 351 -14 473 -71 90 -41 71 0 -60 128 -109 107 -137 131 -228 192 -163 109
-404 208 -560 231 -22 3 -46 8 -53 10 -46 16 -294 22 -407 11 -250 -25 -673
-166 -950 -318 -672 -367 -1232 -948 -1572 -1630 -23 -48 -43 -93 -43 -99 0
-11 104 -8 165 5 75 15 320 22 410 12 17 -2 59 -7 95 -10 140 -15 340 -69 490
-133 117 -50 227 -109 495 -263 294 -169 376 -214 465 -254 46 -20 185 -65
224 -72 17 -3 49 -9 71 -14 177 -39 424 -29 638 25 173 44 377 141 512 242
115 87 275 245 352 348 55 74 143 215 143 230 0 3 18 32 39 64 75 110 99 170
116 286 3 22 8 45 10 52 25 76 25 589 0 737 -2 11 -9 53 -15 91 -14 95 -64
313 -96 421 -14 49 -32 109 -39 134 -8 25 -27 92 -44 150 -64 213 -81 344 -52
373 7 7 63 12 149 12 155 1 212 17 296 81 61 46 79 83 81 167 3 92 -21 139
-146 295 -155 192 -157 198 -164 607 -3 132 -6 249 -9 260 -13 62 -21 85 -45
127 -14 27 -29 48 -32 48 -3 0 -6 -21 -7 -47 -2 -27 -9 -85 -17 -129 -44 -238
-152 -410 -335 -534 l-64 -44 29 -8 c40 -11 68 -15 145 -23 36 -4 69 -9 73
-12 4 -3 18 -28 31 -57 25 -56 64 -95 130 -128 63 -31 141 -94 171 -138 22
-32 27 -47 22 -79 -11 -84 -80 -172 -170 -218 -321 -162 -830 460 -940 1149
-18 114 -15 304 7 388 21 77 71 172 118 219 54 56 130 85 218 86 87 0 108 -3
250 -39 222 -57 525 -156 580 -191 94 -59 143 -161 195 -405 47 -222 94 -350
147 -407 52 -56 61 -21 62 244 1 106 3 193 6 193 3 0 23 -23 44 -50 21 -28 40
-49 42 -48 1 2 4 147 5 322 2 387 11 444 90 599 89 176 223 282 614 487 141
74 214 116 312 182 76 51 163 129 163 147 0 17 -36 31 -78 31 -22 0 -44 6 -50
13 -5 6 -12 41 -15 77 -11 129 -66 246 -178 380 -43 52 -79 101 -79 109 0 7
15 28 33 45 34 32 105 59 187 71 96 14 144 35 205 87 109 93 208 123 515 154
30 3 66 7 80 9 14 2 61 7 105 10 44 4 91 8 105 10 14 2 52 7 85 10 33 3 96 10
140 16 44 5 97 12 118 14 96 12 126 17 182 26 33 6 95 12 138 14 171 8 173 5
543 -735 311 -623 318 -641 290 -734 -18 -58 -52 -102 -124 -156 -99 -74 -136
-151 -127 -264 10 -132 70 -254 288 -581 136 -204 200 -286 213 -272 3 3 0 23
-5 45 -39 144 -32 510 13 726 18 86 18 229 0 317 -19 88 -66 217 -144 394 -56
125 -97 213 -285 600 -261 541 -317 704 -270 796 21 41 31 49 111 90 134 69
257 229 279 360 4 24 9 53 11 64 6 32 6 186 -1 230 -12 81 -36 161 -65 218
-119 234 -343 476 -597 644 -111 74 -169 104 -262 137 -101 36 -143 45 -263
53 -137 9 -914 9 -1153 -1 -421 -17 -455 -22 -455 -63 0 -27 -32 -82 -50 -88
-19 -6 -91 28 -265 124 -49 28 -93 51 -98 51 -4 0 -4 -12 -1 -27z m1331 -61
c45 -21 52 -39 21 -51 -62 -23 -167 8 -176 52 -6 30 91 30 155 -1z m-383 -109
c59 -59 83 -100 66 -117 -9 -8 -22 0 -52 34 -35 39 -78 108 -78 125 0 14 20 1
64 -42z m1184 -27 c23 -8 83 -39 134 -69 51 -30 148 -83 216 -117 114 -58 145
-81 128 -97 -12 -12 -422 161 -511 216 -60 36 -69 56 -32 71 12 5 23 9 23 9 1
1 20 -5 42 -13z m-708 -142 c100 -47 203 -116 263 -176 100 -100 15 -101 -141
-2 -29 19 -54 34 -56 34 -8 0 -152 100 -185 129 -22 19 -32 34 -28 45 9 23 55
14 147 -30z m445 -9 c141 -68 208 -135 134 -135 -74 0 -279 126 -279 171 0 26
30 19 145 -36z m-598 -187 c23 -22 31 -58 13 -58 -19 0 -73 57 -66 68 11 18
27 15 53 -10z m-616 -18 c23 -13 25 -59 4 -100 -27 -52 -45 -33 -45 49 0 61 6
69 41 51z m-1354 -66 c2 -7 -10 -17 -28 -23 -43 -15 -43 -15 -22 14 18 25 43
29 50 9z m3987 -3180 c13 -5 14 -9 5 -20 -14 -17 -75 -19 -85 -3 -13 22 42 38
80 23z"/>
<path d="M7365 6793 c-11 -2 -74 -17 -140 -33 -66 -16 -163 -37 -215 -46 -52
-9 -98 -18 -101 -20 -4 -2 -24 -6 -45 -10 -42 -6 -266 -69 -299 -83 -11 -5
-60 -24 -110 -42 -49 -18 -94 -36 -100 -41 -5 -4 -15 -8 -22 -8 -30 0 -366
-173 -401 -206 -6 -7 -21 -15 -31 -19 -25 -8 -52 -50 -45 -69 8 -22 95 -73
264 -155 148 -73 188 -83 245 -61 28 11 88 14 115 7 8 -2 62 -27 120 -54 132
-63 172 -74 280 -77 75 -2 127 7 410 70 81 18 229 24 285 11 141 -31 270 26
260 116 -7 59 -18 117 -31 167 -22 82 -24 142 -7 178 18 36 90 113 186 196 89
77 95 89 62 122 -28 28 -41 28 -130 -1 -75 -24 -163 -16 -250 24 -53 24 -98
33 -185 36 -52 1 -104 1 -115 -2z m-350 -238 c55 -11 169 -43 207 -59 83 -35
69 -88 -24 -90 -29 -1 -59 -5 -67 -10 -10 -6 -12 -5 -7 3 5 8 -3 10 -31 6 -77
-10 -147 -26 -358 -80 -99 -25 -195 -48 -214 -51 -18 -3 -43 -8 -55 -11 -11
-3 -68 -6 -126 -8 -77 -2 -114 1 -139 12 l-35 15 45 20 c24 11 134 53 244 94
110 41 207 77 215 81 8 3 20 7 25 9 6 1 63 20 128 42 65 21 128 38 140 36 12
-2 36 -6 52 -9z m259 -422 c18 -10 18 -12 -10 -26 -55 -28 -151 -54 -264 -72
-96 -16 -214 0 -244 34 -17 18 -16 19 16 29 34 11 97 23 133 27 57 7 140 17
142 19 8 7 212 -3 227 -11z"/>
<path d="M7858 6333 c-22 -27 -11 -51 29 -62 36 -10 83 0 83 18 0 15 -60 61
-79 61 -10 0 -25 -8 -33 -17z"/>
<path d="M3654 6084 c-69 -28 -129 -67 -148 -96 -18 -28 -42 -122 -53 -203 -9
-73 -9 -240 1 -278 l7 -28 27 29 c75 82 119 158 147 258 54 185 113 212 241
108 77 -63 147 -80 180 -43 41 45 18 132 -45 171 -78 49 -174 87 -249 97 -43
6 -62 4 -108 -15z"/>
<path d="M7281 5807 c-48 -24 -74 -63 -52 -77 11 -6 46 -6 46 0 0 1 8 3 17 5
41 8 107 73 91 89 -13 13 -59 5 -102 -17z"/>
<path d="M7915 5666 c-46 -17 -136 -70 -175 -104 l-35 -30 39 -56 c21 -31 44
-56 51 -56 17 0 221 219 233 251 5 13 -77 9 -113 -5z"/>
<path d="M3995 5602 c-22 -9 -46 -21 -54 -27 -17 -12 -142 -137 -156 -156 -26
-34 -57 -91 -64 -117 -10 -34 10 -91 34 -93 8 -1 21 -2 28 -3 32 -5 236 122
331 205 61 54 71 80 50 125 -33 68 -99 94 -169 66z"/>
<path d="M5058 5313 c-23 -26 -14 -71 34 -180 20 -46 31 -47 74 -10 30 25 39
60 35 123 0 9 -17 32 -37 50 -40 38 -82 45 -106 17z"/>
<path d="M7776 5255 c-24 -25 -56 -104 -56 -141 0 -45 33 -68 124 -89 41 -9
79 -22 86 -29 6 -8 15 -39 20 -70 5 -30 20 -72 34 -93 28 -41 34 -95 15 -136
-13 -29 -57 -57 -129 -80 -58 -19 -70 -29 -70 -64 0 -29 18 -29 96 -3 190 66
422 105 619 104 105 0 126 -3 169 -24 38 -18 53 -33 67 -65 26 -59 14 -104
-28 -105 -7 0 -46 11 -88 25 -66 23 -86 25 -172 20 -53 -3 -108 -7 -122 -10
-14 -2 -57 -6 -96 -10 -72 -6 -108 -10 -235 -25 -41 -5 -97 -12 -125 -15 -27
-4 -88 -13 -135 -21 -155 -26 -176 -31 -238 -61 -61 -30 -129 -109 -186 -216
-31 -60 -36 -78 -36 -135 1 -37 6 -99 13 -138 22 -122 21 -123 -54 -168 -36
-22 -76 -54 -89 -72 -30 -44 -37 -109 -16 -157 20 -49 13 -63 -40 -83 -53 -20
-66 -40 -64 -97 3 -82 2 -85 -42 -108 -80 -41 -210 -29 -348 34 -30 13 -80 36
-112 51 -77 36 -150 54 -361 92 -16 3 -46 12 -68 19 -21 8 -39 12 -39 8 0 -3
-6 -1 -12 5 -22 17 -153 52 -214 56 -130 9 -206 39 -284 112 -51 48 -92 63
-168 64 -36 0 -45 4 -61 31 -10 17 -21 47 -25 68 -8 52 -44 83 -103 88 -55 5
-120 -18 -130 -45 -4 -9 -9 -19 -13 -22 -10 -8 -81 -192 -76 -198 3 -2 36 -6
73 -8 85 -4 113 -11 113 -27 0 -17 -47 -60 -82 -75 -16 -6 -28 -16 -28 -21 0
-5 37 -28 83 -52 84 -43 111 -59 232 -137 128 -83 251 -187 410 -347 78 -78
177 -163 215 -186 34 -21 108 -47 150 -53 19 -3 46 -8 60 -10 14 -3 90 -7 170
-10 245 -10 299 -26 335 -102 12 -26 16 -51 12 -84 -10 -80 -5 -82 248 -115
17 -3 57 -7 90 -10 33 -4 74 -8 90 -10 17 -3 78 -7 136 -11 90 -5 111 -4 140
11 62 32 109 104 109 167 0 19 6 43 14 54 14 18 18 15 84 -53 40 -42 78 -73
89 -73 30 0 49 45 58 143 12 116 73 204 175 250 46 21 164 53 270 72 224 42
422 137 487 234 58 86 140 403 193 746 6 39 13 80 15 92 25 144 25 736 0 923
-2 19 -7 55 -10 80 -18 145 -55 267 -91 301 -40 38 -97 33 -168 -14 -61 -40
-111 -54 -191 -51 -87 2 -288 14 -335 19 -180 20 -246 32 -292 56 -45 23 -43
23 -62 4z m959 -231 c12 -3 27 -14 33 -25 27 -42 52 -251 37 -299 -11 -34 -44
-22 -104 38 -91 91 -125 188 -83 237 39 47 73 61 117 49z m-511 -20 c9 -3 16
-12 16 -19 0 -25 -60 -34 -79 -12 -21 26 22 47 63 31z m301 -739 c139 -12 226
-83 251 -205 31 -156 -55 -608 -121 -634 -9 -3 -52 -3 -95 0 l-79 6 -108 -50
c-61 -29 -130 -54 -158 -57 -104 -13 -169 -68 -247 -206 l-22 -39 -55 5 c-31
2 -99 7 -151 10 -192 12 -271 23 -293 40 -26 19 -13 53 21 60 44 9 97 39 97
55 0 8 -27 29 -60 47 -69 38 -116 85 -112 111 2 9 13 38 25 65 21 47 40 129
44 197 3 35 3 35 53 35 l50 0 -2 34 c0 18 -17 65 -36 105 -20 39 -38 85 -41
101 -4 17 -8 39 -10 50 -6 34 21 84 51 96 118 46 348 117 438 135 101 20 237
44 265 46 53 4 216 1 295 -7z m-2304 -1033 c24 -16 50 -36 57 -45 12 -14 9
-15 -20 -12 -75 6 -109 18 -125 42 -14 21 -14 26 -2 34 23 15 43 10 90 -19z
m1117 -783 c-5 -14 -112 -56 -154 -61 -52 -5 -32 23 31 46 71 26 129 33 123
15z"/>
<path d="M8142 4119 c-18 -4 -42 -15 -53 -25 -28 -25 -10 -33 91 -40 139 -10
186 10 109 48 -40 20 -101 27 -147 17z"/>
<path d="M8403 4025 c-37 -20 -73 -42 -79 -50 -6 -8 -16 -15 -21 -15 -5 0 -18
-10 -29 -21 -30 -34 -97 -59 -171 -64 -115 -8 -153 -24 -153 -61 0 -21 76
-100 110 -114 17 -7 30 -16 30 -21 0 -5 7 -9 15 -9 8 0 15 -3 15 -8 0 -4 27
-18 61 -32 58 -22 65 -23 132 -11 115 19 320 131 301 163 -4 6 -2 8 3 5 6 -4
22 11 37 33 31 47 29 84 -9 142 -29 44 -76 89 -86 82 -4 -2 -10 0 -14 6 -13
20 -75 9 -142 -25z"/>
<path d="M4499 5164 c-20 -25 -20 -103 1 -144 38 -73 121 -124 134 -82 15 46
-23 147 -77 208 -33 39 -39 40 -58 18z"/>
<path d="M3626 5091 c-7 -11 59 -142 85 -170 11 -11 19 -24 19 -29 0 -16 55
-61 81 -66 59 -10 89 50 51 105 -26 38 -92 94 -157 134 -63 37 -71 40 -79 26z"/>
<path d="M4960 4695 c-31 -38 -1 -155 40 -155 54 0 32 169 -21 170 -4 0 -12
-7 -19 -15z"/>
<path d="M4868 3753 c-24 -6 -34 -49 -17 -70 16 -19 98 -57 106 -49 10 10 11
56 2 62 -5 3 -7 9 -4 14 6 10 -43 51 -59 49 -6 -1 -19 -3 -28 -6z"/>
<path d="M8430 2326 c-3 -2 -30 -7 -60 -10 -229 -24 -516 -198 -702 -426 -124
-152 -221 -368 -243 -540 -3 -25 -8 -63 -11 -84 l-6 -40 53 59 c186 203 276
257 519 314 129 31 181 36 365 36 181 0 248 -6 360 -31 39 -8 79 -17 91 -19
43 -10 228 -75 272 -97 35 -17 48 -29 50 -48 4 -32 -59 -154 -141 -275 -60
-88 -255 -294 -346 -366 -24 -19 -49 -39 -56 -46 -30 -29 -208 -138 -280 -173
-186 -90 -416 -109 -605 -51 -33 10 -30 6 40 -60 101 -96 248 -185 415 -251
59 -23 75 -28 170 -43 65 -11 335 -14 410 -4 76 10 212 49 285 81 219 97 324
152 470 250 422 282 760 681 995 1173 99 206 129 281 121 301 -4 11 -10 13
-19 7 -22 -17 -159 -48 -272 -61 -82 -9 -329 -9 -389 1 -198 32 -292 64 -631
215 -389 173 -425 183 -665 189 -103 2 -188 2 -190 -1z"/>
</g>
</svg>
